<svg xmlns="http://www.w3.org/2000/svg" width="400" height="400" viewBox="0 0 400 400">
<rect width="400" height="400" fill="#fafafa"/>
<circle cx="200" cy="200" r="180" fill="none" stroke="#bbb" stroke-width="1" stroke-dasharray="3,3"/>
<line x1="20" y1="200" x2="380" y2="200" stroke="#888" stroke-width="1"/>
<line x1="200" y1="20" x2="200" y2="380" stroke="#888" stroke-width="1"/>
<text x="293" y="196" font-family="Arial" font-size="11" fill="#666">5</text>
<text x="383" y="196" font-family="Arial" font-size="11" fill="#666">10</text>
<circle cx="182" cy="38" r="3" fill="#1a56a8"/>
<circle cx="218" cy="38" r="3" fill="#1a56a8"/>
<circle cx="110" cy="74" r="3" fill="#1a56a8"/>
<circle cx="146" cy="74" r="3" fill="#1a56a8"/>
<circle cx="182" cy="74" r="3" fill="#1a56a8"/>
<circle cx="218" cy="74" r="3" fill="#1a56a8"/>
<circle cx="254" cy="74" r="3" fill="#1a56a8"/>
<circle cx="290" cy="74" r="3" fill="#1a56a8"/>
<circle cx="74" cy="110" r="3" fill="#1a56a8"/>
<circle cx="110" cy="110" r="3" fill="#1a56a8"/>
<circle cx="146" cy="110" r="3" fill="#1a56a8"/>
<circle cx="182" cy="110" r="3" fill="#1a56a8"/>
<circle cx="218" cy="110" r="3" fill="#1a56a8"/>
<circle cx="254" cy="110" r="3" fill="#1a56a8"/>
<circle cx="290" cy="110" r="3" fill="#1a56a8"/>
<circle cx="326" cy="110" r="3" fill="#1a56a8"/>
<circle cx="74" cy="146" r="3" fill="#1a56a8"/>
<circle cx="110" cy="146" r="3" fill="#1a56a8"/>
<circle cx="146" cy="146" r="3" fill="#1a56a8"/>
<circle cx="182" cy="146" r="3" fill="#1a56a8"/>
<circle cx="218" cy="146" r="3" fill="#1a56a8"/>
<circle cx="254" cy="146" r="3" fill="#1a56a8"/>
<circle cx="290" cy="146" r="3" fill="#1a56a8"/>
<circle cx="326" cy="146" r="3" fill="#1a56a8"/>
<circle cx="38" cy="182" r="3" fill="#1a56a8"/>
<circle cx="74" cy="182" r="3" fill="#1a56a8"/>
<circle cx="110" cy="182" r="3" fill="#1a56a8"/>
<circle cx="146" cy="182" r="3" fill="#1a56a8"/>
<circle cx="182" cy="182" r="3" fill="#1a56a8"/>
<circle cx="218" cy="182" r="3" fill="#1a56a8"/>
<circle cx="254" cy="182" r="3" fill="#1a56a8"/>
<circle cx="290" cy="182" r="3" fill="#1a56a8"/>
<circle cx="326" cy="182" r="3" fill="#1a56a8"/>
<circle cx="362" cy="182" r="3" fill="#1a56a8"/>
<circle cx="38" cy="218" r="3" fill="#1a56a8"/>
<circle cx="74" cy="218" r="3" fill="#1a56a8"/>
<circle cx="110" cy="218" r="3" fill="#1a56a8"/>
<circle cx="146" cy="218" r="3" fill="#1a56a8"/>
<circle cx="182" cy="218" r="3" fill="#1a56a8"/>
<circle cx="218" cy="218" r="3" fill="#1a56a8"/>
<circle cx="254" cy="218" r="3" fill="#1a56a8"/>
<circle cx="290" cy="218" r="3" fill="#1a56a8"/>
<circle cx="326" cy="218" r="3" fill="#1a56a8"/>
<circle cx="362" cy="218" r="3" fill="#1a56a8"/>
<circle cx="74" cy="254" r="3" fill="#1a56a8"/>
<circle cx="110" cy="254" r="3" fill="#1a56a8"/>
<circle cx="146" cy="254" r="3" fill="#1a56a8"/>
<circle cx="182" cy="254" r="3" fill="#1a56a8"/>
<circle cx="218" cy="254" r="3" fill="#1a56a8"/>
<circle cx="254" cy="254" r="3" fill="#1a56a8"/>
<circle cx="290" cy="254" r="3" fill="#1a56a8"/>
<circle cx="326" cy="254" r="3" fill="#1a56a8"/>
<circle cx="74" cy="290" r="3" fill="#1a56a8"/>
<circle cx="110" cy="290" r="3" fill="#1a56a8"/>
<circle cx="146" cy="290" r="3" fill="#1a56a8"/>
<circle cx="182" cy="290" r="3" fill="#1a56a8"/>
<circle cx="218" cy="290" r="3" fill="#1a56a8"/>
<circle cx="254" cy="290" r="3" fill="#1a56a8"/>
<circle cx="290" cy="290" r="3" fill="#1a56a8"/>
<circle cx="326" cy="290" r="3" fill="#1a56a8"/>
<circle cx="110" cy="326" r="3" fill="#1a56a8"/>
<circle cx="146" cy="326" r="3" fill="#1a56a8"/>
<circle cx="182" cy="326" r="3" fill="#1a56a8"/>
<circle cx="218" cy="326" r="3" fill="#1a56a8"/>
<circle cx="254" cy="326" r="3" fill="#1a56a8"/>
<circle cx="290" cy="326" r="3" fill="#1a56a8"/>
<circle cx="182" cy="362" r="3" fill="#1a56a8"/>
<circle cx="218" cy="362" r="3" fill="#1a56a8"/>
<text x="200" y="390" font-family="Arial" font-size="12" fill="#333" text-anchor="middle">HFA 10-2 Threshold (68 pts) — OD</text>
</svg>