<svg xmlns="http://www.w3.org/2000/svg" width="600" height="600" viewBox="0 0 600 600">
  <rect width="600" height="600" fill="white"/>
  <g stroke="#999" stroke-width="0.5" fill="none">
    <circle cx="300" cy="300" r="80"/>
    <circle cx="300" cy="300" r="160"/>
    <circle cx="300" cy="300" r="240"/>
    <line x1="60" y1="300" x2="540" y2="300"/>
    <line x1="300" y1="60" x2="300" y2="540"/>
  </g>
  <circle cx="300" cy="300" r="192" fill="none" stroke="#c43c3c" stroke-width="1.2" stroke-dasharray="4,3" opacity="0.6"/>
  <circle cx="84.0" cy="324.0" r="4" fill="#1a2332"/>
  <circle cx="84.0" cy="276.0" r="4" fill="#1a2332"/>
  <circle cx="132.0" cy="372.0" r="4" fill="#1a2332"/>
  <circle cx="132.0" cy="324.0" r="4" fill="#1a2332"/>
  <circle cx="132.0" cy="276.0" r="4" fill="#1a2332"/>
  <circle cx="132.0" cy="228.0" r="4" fill="#1a2332"/>
  <circle cx="180.0" cy="420.0" r="4" fill="#1a2332"/>
  <circle cx="180.0" cy="372.0" r="4" fill="#1a2332"/>
  <circle cx="180.0" cy="324.0" r="4" fill="#1a2332"/>
  <circle cx="180.0" cy="276.0" r="4" fill="#1a2332"/>
  <circle cx="180.0" cy="228.0" r="4" fill="#1a2332"/>
  <circle cx="180.0" cy="180.0" r="4" fill="#1a2332"/>
  <circle cx="228.0" cy="468.0" r="4" fill="#1a2332"/>
  <circle cx="228.0" cy="420.0" r="4" fill="#1a2332"/>
  <circle cx="228.0" cy="372.0" r="4" fill="#1a2332"/>
  <circle cx="228.0" cy="324.0" r="4" fill="#1a2332"/>
  <circle cx="228.0" cy="276.0" r="4" fill="#1a2332"/>
  <circle cx="228.0" cy="228.0" r="4" fill="#1a2332"/>
  <circle cx="228.0" cy="180.0" r="4" fill="#1a2332"/>
  <circle cx="228.0" cy="132.0" r="4" fill="#1a2332"/>
  <circle cx="276.0" cy="468.0" r="4" fill="#1a2332"/>
  <circle cx="276.0" cy="420.0" r="4" fill="#1a2332"/>
  <circle cx="276.0" cy="372.0" r="4" fill="#1a2332"/>
  <circle cx="276.0" cy="324.0" r="4" fill="#1a2332"/>
  <circle cx="276.0" cy="276.0" r="4" fill="#1a2332"/>
  <circle cx="276.0" cy="228.0" r="4" fill="#1a2332"/>
  <circle cx="276.0" cy="180.0" r="4" fill="#1a2332"/>
  <circle cx="276.0" cy="132.0" r="4" fill="#1a2332"/>
  <circle cx="324.0" cy="468.0" r="4" fill="#1a2332"/>
  <circle cx="324.0" cy="420.0" r="4" fill="#1a2332"/>
  <circle cx="324.0" cy="372.0" r="4" fill="#1a2332"/>
  <circle cx="324.0" cy="324.0" r="4" fill="#1a2332"/>
  <circle cx="324.0" cy="276.0" r="4" fill="#1a2332"/>
  <circle cx="324.0" cy="228.0" r="4" fill="#1a2332"/>
  <circle cx="324.0" cy="180.0" r="4" fill="#1a2332"/>
  <circle cx="324.0" cy="132.0" r="4" fill="#1a2332"/>
  <circle cx="372.0" cy="468.0" r="4" fill="#1a2332"/>
  <circle cx="372.0" cy="420.0" r="4" fill="#1a2332"/>
  <circle cx="372.0" cy="372.0" r="4" fill="#1a2332"/>
  <circle cx="372.0" cy="324.0" r="4" fill="#1a2332"/>
  <circle cx="372.0" cy="276.0" r="4" fill="#1a2332"/>
  <circle cx="372.0" cy="228.0" r="4" fill="#1a2332"/>
  <circle cx="372.0" cy="180.0" r="4" fill="#1a2332"/>
  <circle cx="372.0" cy="132.0" r="4" fill="#1a2332"/>
  <circle cx="420.0" cy="420.0" r="4" fill="#1a2332"/>
  <circle cx="420.0" cy="372.0" r="4" fill="#1a2332"/>
  <circle cx="420.0" cy="324.0" r="4" fill="#1a2332"/>
  <circle cx="420.0" cy="276.0" r="4" fill="#1a2332"/>
  <circle cx="420.0" cy="228.0" r="4" fill="#1a2332"/>
  <circle cx="420.0" cy="180.0" r="4" fill="#1a2332"/>
  <circle cx="468.0" cy="372.0" r="4" fill="#1a2332"/>
  <circle cx="468.0" cy="324.0" r="4" fill="#1a2332"/>
  <circle cx="468.0" cy="276.0" r="4" fill="#1a2332"/>
  <circle cx="468.0" cy="228.0" r="4" fill="#1a2332"/>
  <polygon points="414.0,329.0 426.0,329.0 420.0,318.0" fill="none" stroke="#6b46c1" stroke-width="1.5"/>
  <g stroke="#1a2332" stroke-width="1.5" fill="none">
    <line x1="294" y1="300" x2="306" y2="300"/>
    <line x1="300" y1="294" x2="300" y2="306"/>
  </g>
  <text x="300" y="30" font-family="Arial" font-size="16" font-weight="bold" text-anchor="middle">Central 24-2 Threshold</text>
  <text x="300" y="585" font-family="Arial" font-size="11" fill="#666" text-anchor="middle">OD · 54 points (6° grid, ±3° off-meridian, r≤24° + nasal extension)</text>
</svg>