<svg xmlns="http://www.w3.org/2000/svg" width="500" height="500" viewBox="0 0 500 500">
<rect width="500" height="500" fill="#fafafa"/>
<circle cx="250" cy="250" r="70" fill="none" stroke="#bbb" stroke-width="1" stroke-dasharray="3,3"/>
<circle cx="250" cy="250" r="140" fill="none" stroke="#bbb" stroke-width="1" stroke-dasharray="3,3"/>
<circle cx="250" cy="250" r="210" fill="none" stroke="#bbb" stroke-width="1" stroke-dasharray="3,3"/>
<line x1="40" y1="250" x2="460" y2="250" stroke="#888" stroke-width="1"/>
<line x1="250" y1="40" x2="250" y2="460" stroke="#888" stroke-width="1"/>
<text x="323" y="246" font-family="Arial" font-size="10" fill="#666">10</text>
<text x="393" y="246" font-family="Arial" font-size="10" fill="#666">20</text>
<text x="463" y="246" font-family="Arial" font-size="10" fill="#666">30</text>
<circle cx="82" cy="376" r="2.5" fill="#1a56a8"/>
<circle cx="82" cy="334" r="2.5" fill="#1a56a8"/>
<circle cx="82" cy="292" r="2.5" fill="#1a56a8"/>
<circle cx="82" cy="250" r="2.5" fill="#1a56a8"/>
<circle cx="82" cy="208" r="2.5" fill="#1a56a8"/>
<circle cx="82" cy="166" r="2.5" fill="#1a56a8"/>
<circle cx="82" cy="124" r="2.5" fill="#1a56a8"/>
<circle cx="124" cy="418" r="2.5" fill="#1a56a8"/>
<circle cx="124" cy="376" r="2.5" fill="#1a56a8"/>
<circle cx="124" cy="334" r="2.5" fill="#1a56a8"/>
<circle cx="124" cy="292" r="2.5" fill="#1a56a8"/>
<circle cx="124" cy="250" r="2.5" fill="#1a56a8"/>
<circle cx="124" cy="208" r="2.5" fill="#1a56a8"/>
<circle cx="124" cy="166" r="2.5" fill="#1a56a8"/>
<circle cx="124" cy="124" r="2.5" fill="#1a56a8"/>
<circle cx="124" cy="82" r="2.5" fill="#1a56a8"/>
<circle cx="166" cy="418" r="2.5" fill="#1a56a8"/>
<circle cx="166" cy="376" r="2.5" fill="#1a56a8"/>
<circle cx="166" cy="334" r="2.5" fill="#1a56a8"/>
<circle cx="166" cy="292" r="2.5" fill="#1a56a8"/>
<circle cx="166" cy="250" r="2.5" fill="#1a56a8"/>
<circle cx="166" cy="208" r="2.5" fill="#1a56a8"/>
<circle cx="166" cy="166" r="2.5" fill="#1a56a8"/>
<circle cx="166" cy="124" r="2.5" fill="#1a56a8"/>
<circle cx="166" cy="82" r="2.5" fill="#1a56a8"/>
<circle cx="208" cy="418" r="2.5" fill="#1a56a8"/>
<circle cx="208" cy="376" r="2.5" fill="#1a56a8"/>
<circle cx="208" cy="334" r="2.5" fill="#1a56a8"/>
<circle cx="208" cy="292" r="2.5" fill="#1a56a8"/>
<circle cx="208" cy="250" r="2.5" fill="#1a56a8"/>
<circle cx="208" cy="208" r="2.5" fill="#1a56a8"/>
<circle cx="208" cy="166" r="2.5" fill="#1a56a8"/>
<circle cx="208" cy="124" r="2.5" fill="#1a56a8"/>
<circle cx="208" cy="82" r="2.5" fill="#1a56a8"/>
<circle cx="250" cy="418" r="2.5" fill="#1a56a8"/>
<circle cx="250" cy="376" r="2.5" fill="#1a56a8"/>
<circle cx="250" cy="334" r="2.5" fill="#1a56a8"/>
<circle cx="250" cy="292" r="2.5" fill="#1a56a8"/>
<circle cx="250" cy="208" r="2.5" fill="#1a56a8"/>
<circle cx="250" cy="166" r="2.5" fill="#1a56a8"/>
<circle cx="250" cy="124" r="2.5" fill="#1a56a8"/>
<circle cx="250" cy="82" r="2.5" fill="#1a56a8"/>
<circle cx="292" cy="418" r="2.5" fill="#1a56a8"/>
<circle cx="292" cy="376" r="2.5" fill="#1a56a8"/>
<circle cx="292" cy="334" r="2.5" fill="#1a56a8"/>
<circle cx="292" cy="292" r="2.5" fill="#1a56a8"/>
<circle cx="292" cy="250" r="2.5" fill="#1a56a8"/>
<circle cx="292" cy="208" r="2.5" fill="#1a56a8"/>
<circle cx="292" cy="166" r="2.5" fill="#1a56a8"/>
<circle cx="292" cy="124" r="2.5" fill="#1a56a8"/>
<circle cx="292" cy="82" r="2.5" fill="#1a56a8"/>
<circle cx="334" cy="418" r="2.5" fill="#1a56a8"/>
<circle cx="334" cy="376" r="2.5" fill="#1a56a8"/>
<circle cx="334" cy="334" r="2.5" fill="#1a56a8"/>
<circle cx="334" cy="292" r="2.5" fill="#1a56a8"/>
<circle cx="334" cy="250" r="2.5" fill="#1a56a8"/>
<circle cx="334" cy="208" r="2.5" fill="#1a56a8"/>
<circle cx="334" cy="166" r="2.5" fill="#1a56a8"/>
<circle cx="334" cy="124" r="2.5" fill="#1a56a8"/>
<circle cx="334" cy="82" r="2.5" fill="#1a56a8"/>
<circle cx="376" cy="418" r="2.5" fill="#1a56a8"/>
<circle cx="376" cy="376" r="2.5" fill="#1a56a8"/>
<circle cx="376" cy="334" r="2.5" fill="#1a56a8"/>
<circle cx="376" cy="292" r="2.5" fill="#1a56a8"/>
<circle cx="376" cy="250" r="2.5" fill="#1a56a8"/>
<circle cx="376" cy="208" r="2.5" fill="#1a56a8"/>
<circle cx="376" cy="166" r="2.5" fill="#1a56a8"/>
<circle cx="376" cy="124" r="2.5" fill="#1a56a8"/>
<circle cx="376" cy="82" r="2.5" fill="#1a56a8"/>
<circle cx="418" cy="376" r="2.5" fill="#1a56a8"/>
<circle cx="418" cy="334" r="2.5" fill="#1a56a8"/>
<circle cx="418" cy="292" r="2.5" fill="#1a56a8"/>
<circle cx="418" cy="250" r="2.5" fill="#1a56a8"/>
<circle cx="418" cy="208" r="2.5" fill="#1a56a8"/>
<circle cx="418" cy="166" r="2.5" fill="#1a56a8"/>
<circle cx="418" cy="124" r="2.5" fill="#1a56a8"/>
<text x="250" y="490" font-family="Arial" font-size="12" fill="#333" text-anchor="middle">HFA Central 30-1 Threshold (76 pts) — OD</text>
</svg>