<svg xmlns="http://www.w3.org/2000/svg" width="500" height="500" viewBox="0 0 500 500">
<rect width="500" height="500" fill="#fafafa"/>
<circle cx="250" cy="250" r="35.0" fill="none" stroke="#bbb" stroke-width="1" stroke-dasharray="3,3"/>
<circle cx="250" cy="250" r="70.0" fill="none" stroke="#bbb" stroke-width="1" stroke-dasharray="3,3"/>
<circle cx="250" cy="250" r="105.0" fill="none" stroke="#bbb" stroke-width="1" stroke-dasharray="3,3"/>
<circle cx="250" cy="250" r="140.0" fill="none" stroke="#bbb" stroke-width="1" stroke-dasharray="3,3"/>
<circle cx="250" cy="250" r="175.0" fill="none" stroke="#bbb" stroke-width="1" stroke-dasharray="3,3"/>
<circle cx="250" cy="250" r="210.0" fill="none" stroke="#bbb" stroke-width="1" stroke-dasharray="3,3"/>
<line x1="30" y1="250" x2="470" y2="250" stroke="#888" stroke-width="1"/>
<line x1="250" y1="30" x2="250" y2="470" stroke="#888" stroke-width="1"/>
<text x="280.0" y="246" font-family="Arial" font-size="9" fill="#666">10</text>
<text x="315.0" y="246" font-family="Arial" font-size="9" fill="#666">20</text>
<text x="350.0" y="246" font-family="Arial" font-size="9" fill="#666">30</text>
<text x="385.0" y="246" font-family="Arial" font-size="9" fill="#666">40</text>
<text x="420.0" y="246" font-family="Arial" font-size="9" fill="#666">50</text>
<text x="455.0" y="246" font-family="Arial" font-size="9" fill="#666">60</text>
<circle cx="124" cy="82" r="4" fill="#1a56a8"/>
<circle cx="166" cy="82" r="4" fill="#1a56a8"/>
<circle cx="208" cy="82" r="4" fill="#1a56a8"/>
<circle cx="250" cy="82" r="4" fill="#1a56a8"/>
<circle cx="292" cy="82" r="4" fill="#1a56a8"/>
<circle cx="334" cy="82" r="4" fill="#1a56a8"/>
<circle cx="376" cy="82" r="4" fill="#1a56a8"/>
<circle cx="82" cy="124" r="4" fill="#1a56a8"/>
<circle cx="124" cy="124" r="4" fill="#1a56a8"/>
<circle cx="166" cy="124" r="4" fill="#1a56a8"/>
<circle cx="208" cy="124" r="4" fill="#1a56a8"/>
<circle cx="250" cy="124" r="4" fill="#1a56a8"/>
<circle cx="292" cy="124" r="4" fill="#1a56a8"/>
<circle cx="334" cy="124" r="4" fill="#1a56a8"/>
<circle cx="376" cy="124" r="4" fill="#1a56a8"/>
<circle cx="418" cy="124" r="4" fill="#1a56a8"/>
<circle cx="82" cy="166" r="4" fill="#1a56a8"/>
<circle cx="124" cy="166" r="4" fill="#1a56a8"/>
<circle cx="166" cy="166" r="4" fill="#1a56a8"/>
<circle cx="334" cy="166" r="4" fill="#1a56a8"/>
<circle cx="376" cy="166" r="4" fill="#1a56a8"/>
<circle cx="418" cy="166" r="4" fill="#1a56a8"/>
<circle cx="40" cy="208" r="4" fill="#1a56a8"/>
<circle cx="82" cy="208" r="4" fill="#1a56a8"/>
<circle cx="124" cy="208" r="4" fill="#1a56a8"/>
<circle cx="376" cy="208" r="4" fill="#1a56a8"/>
<circle cx="418" cy="208" r="4" fill="#1a56a8"/>
<circle cx="460" cy="208" r="4" fill="#1a56a8"/>
<circle cx="40" cy="250" r="4" fill="#1a56a8"/>
<circle cx="82" cy="250" r="4" fill="#1a56a8"/>
<circle cx="124" cy="250" r="4" fill="#1a56a8"/>
<circle cx="376" cy="250" r="4" fill="#1a56a8"/>
<circle cx="418" cy="250" r="4" fill="#1a56a8"/>
<circle cx="460" cy="250" r="4" fill="#1a56a8"/>
<circle cx="40" cy="292" r="4" fill="#1a56a8"/>
<circle cx="82" cy="292" r="4" fill="#1a56a8"/>
<circle cx="124" cy="292" r="4" fill="#1a56a8"/>
<circle cx="376" cy="292" r="4" fill="#1a56a8"/>
<circle cx="418" cy="292" r="4" fill="#1a56a8"/>
<circle cx="460" cy="292" r="4" fill="#1a56a8"/>
<circle cx="82" cy="334" r="4" fill="#1a56a8"/>
<circle cx="124" cy="334" r="4" fill="#1a56a8"/>
<circle cx="166" cy="334" r="4" fill="#1a56a8"/>
<circle cx="334" cy="334" r="4" fill="#1a56a8"/>
<circle cx="376" cy="334" r="4" fill="#1a56a8"/>
<circle cx="418" cy="334" r="4" fill="#1a56a8"/>
<circle cx="82" cy="376" r="4" fill="#1a56a8"/>
<circle cx="124" cy="376" r="4" fill="#1a56a8"/>
<circle cx="166" cy="376" r="4" fill="#1a56a8"/>
<circle cx="208" cy="376" r="4" fill="#1a56a8"/>
<circle cx="250" cy="376" r="4" fill="#1a56a8"/>
<circle cx="292" cy="376" r="4" fill="#1a56a8"/>
<circle cx="334" cy="376" r="4" fill="#1a56a8"/>
<circle cx="376" cy="376" r="4" fill="#1a56a8"/>
<circle cx="418" cy="376" r="4" fill="#1a56a8"/>
<circle cx="124" cy="418" r="4" fill="#1a56a8"/>
<circle cx="166" cy="418" r="4" fill="#1a56a8"/>
<circle cx="208" cy="418" r="4" fill="#1a56a8"/>
<circle cx="250" cy="418" r="4" fill="#1a56a8"/>
<circle cx="292" cy="418" r="4" fill="#1a56a8"/>
<circle cx="334" cy="418" r="4" fill="#1a56a8"/>
<circle cx="376" cy="418" r="4" fill="#1a56a8"/>
</svg>