<svg xmlns="http://www.w3.org/2000/svg" width="500" height="500" viewBox="0 0 500 500">
<rect width="500" height="500" fill="#fafafa"/>
<circle cx="250" cy="250" r="35.0" fill="none" stroke="#bbb" stroke-width="1" stroke-dasharray="3,3"/>
<circle cx="250" cy="250" r="70.0" fill="none" stroke="#bbb" stroke-width="1" stroke-dasharray="3,3"/>
<circle cx="250" cy="250" r="105.0" fill="none" stroke="#bbb" stroke-width="1" stroke-dasharray="3,3"/>
<circle cx="250" cy="250" r="140.0" fill="none" stroke="#bbb" stroke-width="1" stroke-dasharray="3,3"/>
<circle cx="250" cy="250" r="175.0" fill="none" stroke="#bbb" stroke-width="1" stroke-dasharray="3,3"/>
<circle cx="250" cy="250" r="210.0" fill="none" stroke="#bbb" stroke-width="1" stroke-dasharray="3,3"/>
<line x1="30" y1="250" x2="470" y2="250" stroke="#888" stroke-width="1"/>
<line x1="250" y1="30" x2="250" y2="470" stroke="#888" stroke-width="1"/>
<text x="280.0" y="246" font-family="Arial" font-size="9" fill="#666">10</text>
<text x="315.0" y="246" font-family="Arial" font-size="9" fill="#666">20</text>
<text x="350.0" y="246" font-family="Arial" font-size="9" fill="#666">30</text>
<text x="385.0" y="246" font-family="Arial" font-size="9" fill="#666">40</text>
<text x="420.0" y="246" font-family="Arial" font-size="9" fill="#666">50</text>
<text x="455.0" y="246" font-family="Arial" font-size="9" fill="#666">60</text>
<circle cx="187" cy="61" r="4" fill="#1a56a8"/>
<circle cx="229" cy="61" r="4" fill="#1a56a8"/>
<circle cx="271" cy="61" r="4" fill="#1a56a8"/>
<circle cx="313" cy="61" r="4" fill="#1a56a8"/>
<circle cx="103" cy="103" r="4" fill="#1a56a8"/>
<circle cx="145" cy="103" r="4" fill="#1a56a8"/>
<circle cx="187" cy="103" r="4" fill="#1a56a8"/>
<circle cx="229" cy="103" r="4" fill="#1a56a8"/>
<circle cx="271" cy="103" r="4" fill="#1a56a8"/>
<circle cx="313" cy="103" r="4" fill="#1a56a8"/>
<circle cx="355" cy="103" r="4" fill="#1a56a8"/>
<circle cx="397" cy="103" r="4" fill="#1a56a8"/>
<circle cx="61" cy="145" r="4" fill="#1a56a8"/>
<circle cx="103" cy="145" r="4" fill="#1a56a8"/>
<circle cx="145" cy="145" r="4" fill="#1a56a8"/>
<circle cx="187" cy="145" r="4" fill="#1a56a8"/>
<circle cx="229" cy="145" r="4" fill="#1a56a8"/>
<circle cx="271" cy="145" r="4" fill="#1a56a8"/>
<circle cx="313" cy="145" r="4" fill="#1a56a8"/>
<circle cx="355" cy="145" r="4" fill="#1a56a8"/>
<circle cx="397" cy="145" r="4" fill="#1a56a8"/>
<circle cx="439" cy="145" r="4" fill="#1a56a8"/>
<circle cx="61" cy="187" r="4" fill="#1a56a8"/>
<circle cx="103" cy="187" r="4" fill="#1a56a8"/>
<circle cx="145" cy="187" r="4" fill="#1a56a8"/>
<circle cx="355" cy="187" r="4" fill="#1a56a8"/>
<circle cx="397" cy="187" r="4" fill="#1a56a8"/>
<circle cx="439" cy="187" r="4" fill="#1a56a8"/>
<circle cx="61" cy="229" r="4" fill="#1a56a8"/>
<circle cx="103" cy="229" r="4" fill="#1a56a8"/>
<circle cx="145" cy="229" r="4" fill="#1a56a8"/>
<circle cx="355" cy="229" r="4" fill="#1a56a8"/>
<circle cx="397" cy="229" r="4" fill="#1a56a8"/>
<circle cx="439" cy="229" r="4" fill="#1a56a8"/>
<circle cx="61" cy="271" r="4" fill="#1a56a8"/>
<circle cx="103" cy="271" r="4" fill="#1a56a8"/>
<circle cx="145" cy="271" r="4" fill="#1a56a8"/>
<circle cx="355" cy="271" r="4" fill="#1a56a8"/>
<circle cx="397" cy="271" r="4" fill="#1a56a8"/>
<circle cx="439" cy="271" r="4" fill="#1a56a8"/>
<circle cx="61" cy="313" r="4" fill="#1a56a8"/>
<circle cx="103" cy="313" r="4" fill="#1a56a8"/>
<circle cx="145" cy="313" r="4" fill="#1a56a8"/>
<circle cx="355" cy="313" r="4" fill="#1a56a8"/>
<circle cx="397" cy="313" r="4" fill="#1a56a8"/>
<circle cx="439" cy="313" r="4" fill="#1a56a8"/>
<circle cx="103" cy="355" r="4" fill="#1a56a8"/>
<circle cx="145" cy="355" r="4" fill="#1a56a8"/>
<circle cx="187" cy="355" r="4" fill="#1a56a8"/>
<circle cx="229" cy="355" r="4" fill="#1a56a8"/>
<circle cx="271" cy="355" r="4" fill="#1a56a8"/>
<circle cx="313" cy="355" r="4" fill="#1a56a8"/>
<circle cx="355" cy="355" r="4" fill="#1a56a8"/>
<circle cx="397" cy="355" r="4" fill="#1a56a8"/>
<circle cx="103" cy="397" r="4" fill="#1a56a8"/>
<circle cx="145" cy="397" r="4" fill="#1a56a8"/>
<circle cx="187" cy="397" r="4" fill="#1a56a8"/>
<circle cx="229" cy="397" r="4" fill="#1a56a8"/>
<circle cx="271" cy="397" r="4" fill="#1a56a8"/>
<circle cx="313" cy="397" r="4" fill="#1a56a8"/>
<circle cx="355" cy="397" r="4" fill="#1a56a8"/>
<circle cx="397" cy="397" r="4" fill="#1a56a8"/>
<circle cx="145" cy="439" r="4" fill="#1a56a8"/>
<circle cx="187" cy="439" r="4" fill="#1a56a8"/>
<circle cx="229" cy="439" r="4" fill="#1a56a8"/>
<circle cx="271" cy="439" r="4" fill="#1a56a8"/>
<circle cx="313" cy="439" r="4" fill="#1a56a8"/>
<circle cx="355" cy="439" r="4" fill="#1a56a8"/>
</svg>