<svg xmlns="http://www.w3.org/2000/svg" width="600" height="600" viewBox="0 0 600 600">
  <rect width="600" height="600" fill="white"/>
  <g stroke="#bbb" stroke-width="0.4" fill="none">
    <circle cx="300.0" cy="300.0" r="43.33333333333333"/>
    <circle cx="300.0" cy="300.0" r="86.66666666666666"/>
    <circle cx="300.0" cy="300.0" r="130.0"/>
    <circle cx="300.0" cy="300.0" r="173.33333333333331"/>
    <circle cx="300.0" cy="300.0" r="216.66666666666666"/>
    <circle cx="300.0" cy="300.0" r="260.0"/>
  </g>
  <g stroke="#f5f5f5" stroke-width="0.15" fill="none">
    <line x1="300.0" y1="300.0" x2="560.0" y2="300.0"/>
    <line x1="300.0" y1="300.0" x2="559.9" y2="292.4"/>
    <line x1="300.0" y1="300.0" x2="559.6" y2="284.9"/>
    <line x1="300.0" y1="300.0" x2="559.0" y2="277.3"/>
    <line x1="300.0" y1="300.0" x2="558.2" y2="269.8"/>
    <line x1="300.0" y1="300.0" x2="557.3" y2="262.3"/>
    <line x1="300.0" y1="300.0" x2="556.1" y2="254.9"/>
    <line x1="300.0" y1="300.0" x2="554.6" y2="247.4"/>
    <line x1="300.0" y1="300.0" x2="553.0" y2="240.0"/>
    <line x1="300.0" y1="300.0" x2="551.1" y2="232.7"/>
    <line x1="300.0" y1="300.0" x2="549.1" y2="225.4"/>
    <line x1="300.0" y1="300.0" x2="546.8" y2="218.2"/>
    <line x1="300.0" y1="300.0" x2="544.3" y2="211.1"/>
    <line x1="300.0" y1="300.0" x2="541.6" y2="204.0"/>
    <line x1="300.0" y1="300.0" x2="538.7" y2="197.0"/>
    <line x1="300.0" y1="300.0" x2="535.6" y2="190.1"/>
    <line x1="300.0" y1="300.0" x2="532.3" y2="183.3"/>
    <line x1="300.0" y1="300.0" x2="528.9" y2="176.6"/>
    <line x1="300.0" y1="300.0" x2="525.2" y2="170.0"/>
    <line x1="300.0" y1="300.0" x2="521.3" y2="163.5"/>
    <line x1="300.0" y1="300.0" x2="517.2" y2="157.1"/>
    <line x1="300.0" y1="300.0" x2="513.0" y2="150.9"/>
    <line x1="300.0" y1="300.0" x2="508.6" y2="144.7"/>
    <line x1="300.0" y1="300.0" x2="503.9" y2="138.7"/>
    <line x1="300.0" y1="300.0" x2="499.2" y2="132.9"/>
    <line x1="300.0" y1="300.0" x2="494.2" y2="127.2"/>
    <line x1="300.0" y1="300.0" x2="489.1" y2="121.6"/>
    <line x1="300.0" y1="300.0" x2="483.8" y2="116.2"/>
    <line x1="300.0" y1="300.0" x2="478.4" y2="110.9"/>
    <line x1="300.0" y1="300.0" x2="472.8" y2="105.8"/>
    <line x1="300.0" y1="300.0" x2="467.1" y2="100.8"/>
    <line x1="300.0" y1="300.0" x2="461.3" y2="96.1"/>
    <line x1="300.0" y1="300.0" x2="455.3" y2="91.4"/>
    <line x1="300.0" y1="300.0" x2="449.1" y2="87.0"/>
    <line x1="300.0" y1="300.0" x2="442.9" y2="82.8"/>
    <line x1="300.0" y1="300.0" x2="436.5" y2="78.7"/>
    <line x1="300.0" y1="300.0" x2="430.0" y2="74.8"/>
    <line x1="300.0" y1="300.0" x2="423.4" y2="71.1"/>
    <line x1="300.0" y1="300.0" x2="416.7" y2="67.7"/>
    <line x1="300.0" y1="300.0" x2="409.9" y2="64.4"/>
    <line x1="300.0" y1="300.0" x2="403.0" y2="61.3"/>
    <line x1="300.0" y1="300.0" x2="396.0" y2="58.4"/>
    <line x1="300.0" y1="300.0" x2="388.9" y2="55.7"/>
    <line x1="300.0" y1="300.0" x2="381.8" y2="53.2"/>
    <line x1="300.0" y1="300.0" x2="374.6" y2="50.9"/>
    <line x1="300.0" y1="300.0" x2="367.3" y2="48.9"/>
    <line x1="300.0" y1="300.0" x2="360.0" y2="47.0"/>
    <line x1="300.0" y1="300.0" x2="352.6" y2="45.4"/>
    <line x1="300.0" y1="300.0" x2="345.1" y2="43.9"/>
    <line x1="300.0" y1="300.0" x2="337.7" y2="42.7"/>
    <line x1="300.0" y1="300.0" x2="330.2" y2="41.8"/>
    <line x1="300.0" y1="300.0" x2="322.7" y2="41.0"/>
    <line x1="300.0" y1="300.0" x2="315.1" y2="40.4"/>
    <line x1="300.0" y1="300.0" x2="307.6" y2="40.1"/>
    <line x1="300.0" y1="300.0" x2="300.0" y2="40.0"/>
    <line x1="300.0" y1="300.0" x2="292.4" y2="40.1"/>
    <line x1="300.0" y1="300.0" x2="284.9" y2="40.4"/>
    <line x1="300.0" y1="300.0" x2="277.3" y2="41.0"/>
    <line x1="300.0" y1="300.0" x2="269.8" y2="41.8"/>
    <line x1="300.0" y1="300.0" x2="262.3" y2="42.7"/>
    <line x1="300.0" y1="300.0" x2="254.9" y2="43.9"/>
    <line x1="300.0" y1="300.0" x2="247.4" y2="45.4"/>
    <line x1="300.0" y1="300.0" x2="240.0" y2="47.0"/>
    <line x1="300.0" y1="300.0" x2="232.7" y2="48.9"/>
    <line x1="300.0" y1="300.0" x2="225.4" y2="50.9"/>
    <line x1="300.0" y1="300.0" x2="218.2" y2="53.2"/>
    <line x1="300.0" y1="300.0" x2="211.1" y2="55.7"/>
    <line x1="300.0" y1="300.0" x2="204.0" y2="58.4"/>
    <line x1="300.0" y1="300.0" x2="197.0" y2="61.3"/>
    <line x1="300.0" y1="300.0" x2="190.1" y2="64.4"/>
    <line x1="300.0" y1="300.0" x2="183.3" y2="67.7"/>
    <line x1="300.0" y1="300.0" x2="176.6" y2="71.1"/>
    <line x1="300.0" y1="300.0" x2="170.0" y2="74.8"/>
    <line x1="300.0" y1="300.0" x2="163.5" y2="78.7"/>
    <line x1="300.0" y1="300.0" x2="157.1" y2="82.8"/>
    <line x1="300.0" y1="300.0" x2="150.9" y2="87.0"/>
    <line x1="300.0" y1="300.0" x2="144.7" y2="91.4"/>
    <line x1="300.0" y1="300.0" x2="138.7" y2="96.1"/>
    <line x1="300.0" y1="300.0" x2="132.9" y2="100.8"/>
    <line x1="300.0" y1="300.0" x2="127.2" y2="105.8"/>
    <line x1="300.0" y1="300.0" x2="121.6" y2="110.9"/>
    <line x1="300.0" y1="300.0" x2="116.2" y2="116.2"/>
    <line x1="300.0" y1="300.0" x2="110.9" y2="121.6"/>
    <line x1="300.0" y1="300.0" x2="105.8" y2="127.2"/>
    <line x1="300.0" y1="300.0" x2="100.8" y2="132.9"/>
    <line x1="300.0" y1="300.0" x2="96.1" y2="138.7"/>
    <line x1="300.0" y1="300.0" x2="91.4" y2="144.7"/>
    <line x1="300.0" y1="300.0" x2="87.0" y2="150.9"/>
    <line x1="300.0" y1="300.0" x2="82.8" y2="157.1"/>
    <line x1="300.0" y1="300.0" x2="78.7" y2="163.5"/>
    <line x1="300.0" y1="300.0" x2="74.8" y2="170.0"/>
    <line x1="300.0" y1="300.0" x2="71.1" y2="176.6"/>
    <line x1="300.0" y1="300.0" x2="67.7" y2="183.3"/>
    <line x1="300.0" y1="300.0" x2="64.4" y2="190.1"/>
    <line x1="300.0" y1="300.0" x2="61.3" y2="197.0"/>
    <line x1="300.0" y1="300.0" x2="58.4" y2="204.0"/>
    <line x1="300.0" y1="300.0" x2="55.7" y2="211.1"/>
    <line x1="300.0" y1="300.0" x2="53.2" y2="218.2"/>
    <line x1="300.0" y1="300.0" x2="50.9" y2="225.4"/>
    <line x1="300.0" y1="300.0" x2="48.9" y2="232.7"/>
    <line x1="300.0" y1="300.0" x2="47.0" y2="240.0"/>
    <line x1="300.0" y1="300.0" x2="45.4" y2="247.4"/>
    <line x1="300.0" y1="300.0" x2="43.9" y2="254.9"/>
    <line x1="300.0" y1="300.0" x2="42.7" y2="262.3"/>
    <line x1="300.0" y1="300.0" x2="41.8" y2="269.8"/>
    <line x1="300.0" y1="300.0" x2="41.0" y2="277.3"/>
    <line x1="300.0" y1="300.0" x2="40.4" y2="284.9"/>
    <line x1="300.0" y1="300.0" x2="40.1" y2="292.4"/>
    <line x1="300.0" y1="300.0" x2="40.0" y2="300.0"/>
    <line x1="300.0" y1="300.0" x2="40.1" y2="307.6"/>
    <line x1="300.0" y1="300.0" x2="40.4" y2="315.1"/>
    <line x1="300.0" y1="300.0" x2="41.0" y2="322.7"/>
    <line x1="300.0" y1="300.0" x2="41.8" y2="330.2"/>
    <line x1="300.0" y1="300.0" x2="42.7" y2="337.7"/>
    <line x1="300.0" y1="300.0" x2="43.9" y2="345.1"/>
    <line x1="300.0" y1="300.0" x2="45.4" y2="352.6"/>
    <line x1="300.0" y1="300.0" x2="47.0" y2="360.0"/>
    <line x1="300.0" y1="300.0" x2="48.9" y2="367.3"/>
    <line x1="300.0" y1="300.0" x2="50.9" y2="374.6"/>
    <line x1="300.0" y1="300.0" x2="53.2" y2="381.8"/>
    <line x1="300.0" y1="300.0" x2="55.7" y2="388.9"/>
    <line x1="300.0" y1="300.0" x2="58.4" y2="396.0"/>
    <line x1="300.0" y1="300.0" x2="61.3" y2="403.0"/>
    <line x1="300.0" y1="300.0" x2="64.4" y2="409.9"/>
    <line x1="300.0" y1="300.0" x2="67.7" y2="416.7"/>
    <line x1="300.0" y1="300.0" x2="71.1" y2="423.4"/>
    <line x1="300.0" y1="300.0" x2="74.8" y2="430.0"/>
    <line x1="300.0" y1="300.0" x2="78.7" y2="436.5"/>
    <line x1="300.0" y1="300.0" x2="82.8" y2="442.9"/>
    <line x1="300.0" y1="300.0" x2="87.0" y2="449.1"/>
    <line x1="300.0" y1="300.0" x2="91.4" y2="455.3"/>
    <line x1="300.0" y1="300.0" x2="96.1" y2="461.3"/>
    <line x1="300.0" y1="300.0" x2="100.8" y2="467.1"/>
    <line x1="300.0" y1="300.0" x2="105.8" y2="472.8"/>
    <line x1="300.0" y1="300.0" x2="110.9" y2="478.4"/>
    <line x1="300.0" y1="300.0" x2="116.2" y2="483.8"/>
    <line x1="300.0" y1="300.0" x2="121.6" y2="489.1"/>
    <line x1="300.0" y1="300.0" x2="127.2" y2="494.2"/>
    <line x1="300.0" y1="300.0" x2="132.9" y2="499.2"/>
    <line x1="300.0" y1="300.0" x2="138.7" y2="503.9"/>
    <line x1="300.0" y1="300.0" x2="144.7" y2="508.6"/>
    <line x1="300.0" y1="300.0" x2="150.9" y2="513.0"/>
    <line x1="300.0" y1="300.0" x2="157.1" y2="517.2"/>
    <line x1="300.0" y1="300.0" x2="163.5" y2="521.3"/>
    <line x1="300.0" y1="300.0" x2="170.0" y2="525.2"/>
    <line x1="300.0" y1="300.0" x2="176.6" y2="528.9"/>
    <line x1="300.0" y1="300.0" x2="183.3" y2="532.3"/>
    <line x1="300.0" y1="300.0" x2="190.1" y2="535.6"/>
    <line x1="300.0" y1="300.0" x2="197.0" y2="538.7"/>
    <line x1="300.0" y1="300.0" x2="204.0" y2="541.6"/>
    <line x1="300.0" y1="300.0" x2="211.1" y2="544.3"/>
    <line x1="300.0" y1="300.0" x2="218.2" y2="546.8"/>
    <line x1="300.0" y1="300.0" x2="225.4" y2="549.1"/>
    <line x1="300.0" y1="300.0" x2="232.7" y2="551.1"/>
    <line x1="300.0" y1="300.0" x2="240.0" y2="553.0"/>
    <line x1="300.0" y1="300.0" x2="247.4" y2="554.6"/>
    <line x1="300.0" y1="300.0" x2="254.9" y2="556.1"/>
    <line x1="300.0" y1="300.0" x2="262.3" y2="557.3"/>
    <line x1="300.0" y1="300.0" x2="269.8" y2="558.2"/>
    <line x1="300.0" y1="300.0" x2="277.3" y2="559.0"/>
    <line x1="300.0" y1="300.0" x2="284.9" y2="559.6"/>
    <line x1="300.0" y1="300.0" x2="292.4" y2="559.9"/>
    <line x1="300.0" y1="300.0" x2="300.0" y2="560.0"/>
    <line x1="300.0" y1="300.0" x2="307.6" y2="559.9"/>
    <line x1="300.0" y1="300.0" x2="315.1" y2="559.6"/>
    <line x1="300.0" y1="300.0" x2="322.7" y2="559.0"/>
    <line x1="300.0" y1="300.0" x2="330.2" y2="558.2"/>
    <line x1="300.0" y1="300.0" x2="337.7" y2="557.3"/>
    <line x1="300.0" y1="300.0" x2="345.1" y2="556.1"/>
    <line x1="300.0" y1="300.0" x2="352.6" y2="554.6"/>
    <line x1="300.0" y1="300.0" x2="360.0" y2="553.0"/>
    <line x1="300.0" y1="300.0" x2="367.3" y2="551.1"/>
    <line x1="300.0" y1="300.0" x2="374.6" y2="549.1"/>
    <line x1="300.0" y1="300.0" x2="381.8" y2="546.8"/>
    <line x1="300.0" y1="300.0" x2="388.9" y2="544.3"/>
    <line x1="300.0" y1="300.0" x2="396.0" y2="541.6"/>
    <line x1="300.0" y1="300.0" x2="403.0" y2="538.7"/>
    <line x1="300.0" y1="300.0" x2="409.9" y2="535.6"/>
    <line x1="300.0" y1="300.0" x2="416.7" y2="532.3"/>
    <line x1="300.0" y1="300.0" x2="423.4" y2="528.9"/>
    <line x1="300.0" y1="300.0" x2="430.0" y2="525.2"/>
    <line x1="300.0" y1="300.0" x2="436.5" y2="521.3"/>
    <line x1="300.0" y1="300.0" x2="442.9" y2="517.2"/>
    <line x1="300.0" y1="300.0" x2="449.1" y2="513.0"/>
    <line x1="300.0" y1="300.0" x2="455.3" y2="508.6"/>
    <line x1="300.0" y1="300.0" x2="461.3" y2="503.9"/>
    <line x1="300.0" y1="300.0" x2="467.1" y2="499.2"/>
    <line x1="300.0" y1="300.0" x2="472.8" y2="494.2"/>
    <line x1="300.0" y1="300.0" x2="478.4" y2="489.1"/>
    <line x1="300.0" y1="300.0" x2="483.8" y2="483.8"/>
    <line x1="300.0" y1="300.0" x2="489.1" y2="478.4"/>
    <line x1="300.0" y1="300.0" x2="494.2" y2="472.8"/>
    <line x1="300.0" y1="300.0" x2="499.2" y2="467.1"/>
    <line x1="300.0" y1="300.0" x2="503.9" y2="461.3"/>
    <line x1="300.0" y1="300.0" x2="508.6" y2="455.3"/>
    <line x1="300.0" y1="300.0" x2="513.0" y2="449.1"/>
    <line x1="300.0" y1="300.0" x2="517.2" y2="442.9"/>
    <line x1="300.0" y1="300.0" x2="521.3" y2="436.5"/>
    <line x1="300.0" y1="300.0" x2="525.2" y2="430.0"/>
    <line x1="300.0" y1="300.0" x2="528.9" y2="423.4"/>
    <line x1="300.0" y1="300.0" x2="532.3" y2="416.7"/>
    <line x1="300.0" y1="300.0" x2="535.6" y2="409.9"/>
    <line x1="300.0" y1="300.0" x2="538.7" y2="403.0"/>
    <line x1="300.0" y1="300.0" x2="541.6" y2="396.0"/>
    <line x1="300.0" y1="300.0" x2="544.3" y2="388.9"/>
    <line x1="300.0" y1="300.0" x2="546.8" y2="381.8"/>
    <line x1="300.0" y1="300.0" x2="549.1" y2="374.6"/>
    <line x1="300.0" y1="300.0" x2="551.1" y2="367.3"/>
    <line x1="300.0" y1="300.0" x2="553.0" y2="360.0"/>
    <line x1="300.0" y1="300.0" x2="554.6" y2="352.6"/>
    <line x1="300.0" y1="300.0" x2="556.1" y2="345.1"/>
    <line x1="300.0" y1="300.0" x2="557.3" y2="337.7"/>
    <line x1="300.0" y1="300.0" x2="558.2" y2="330.2"/>
    <line x1="300.0" y1="300.0" x2="559.0" y2="322.7"/>
    <line x1="300.0" y1="300.0" x2="559.6" y2="315.1"/>
    <line x1="300.0" y1="300.0" x2="559.9" y2="307.6"/>
  </g>
  <g stroke="#aaa" stroke-width="0.5" fill="none">
    <line x1="300.0" y1="300.0" x2="551.1" y2="232.7"/>
    <line x1="300.0" y1="300.0" x2="525.2" y2="170.0"/>
    <line x1="300.0" y1="300.0" x2="483.8" y2="116.2"/>
    <line x1="300.0" y1="300.0" x2="430.0" y2="74.8"/>
    <line x1="300.0" y1="300.0" x2="367.3" y2="48.9"/>
    <line x1="300.0" y1="300.0" x2="232.7" y2="48.9"/>
    <line x1="300.0" y1="300.0" x2="170.0" y2="74.8"/>
    <line x1="300.0" y1="300.0" x2="116.2" y2="116.2"/>
    <line x1="300.0" y1="300.0" x2="74.8" y2="170.0"/>
    <line x1="300.0" y1="300.0" x2="48.9" y2="232.7"/>
    <line x1="300.0" y1="300.0" x2="48.9" y2="367.3"/>
    <line x1="300.0" y1="300.0" x2="74.8" y2="430.0"/>
    <line x1="300.0" y1="300.0" x2="116.2" y2="483.8"/>
    <line x1="300.0" y1="300.0" x2="170.0" y2="525.2"/>
    <line x1="300.0" y1="300.0" x2="232.7" y2="551.1"/>
    <line x1="300.0" y1="300.0" x2="367.3" y2="551.1"/>
    <line x1="300.0" y1="300.0" x2="430.0" y2="525.2"/>
    <line x1="300.0" y1="300.0" x2="483.8" y2="483.8"/>
    <line x1="300.0" y1="300.0" x2="525.2" y2="430.0"/>
    <line x1="300.0" y1="300.0" x2="551.1" y2="367.3"/>
  </g>
  <line x1="40.0" y1="300.0" x2="560.0" y2="300.0" stroke="black" stroke-width="1.2"/>
  <line x1="300.0" y1="40.0" x2="300.0" y2="560.0" stroke="black" stroke-width="1.2"/>
  <text x="303.0" y="396.66666666666663" font-family="Arial" font-size="10" fill="#666">10°</text>
  <text x="303.0" y="483.3333333333333" font-family="Arial" font-size="10" fill="#666">20°</text>
  <text x="303.0" y="570.0" font-family="Arial" font-size="10" fill="#666">30°</text>
  <circle cx="278.6" cy="321.4" r="3.5" fill="black"/>
  <circle cx="321.4" cy="321.4" r="3.5" fill="black"/>
  <circle cx="321.4" cy="278.6" r="3.5" fill="black"/>
  <circle cx="278.6" cy="278.6" r="3.5" fill="black"/>
  <circle cx="343.3" cy="302.5" r="3.5" fill="black"/>
  <circle cx="343.3" cy="300.0" r="3.5" fill="black"/>
  <circle cx="301.3" cy="256.7" r="3.5" fill="black"/>
  <circle cx="256.7" cy="300.0" r="3.5" fill="black"/>
  <circle cx="214.2" cy="312.6" r="3.5" fill="black"/>
  <circle cx="224.9" cy="343.3" r="3.5" fill="black"/>
  <circle cx="237.0" cy="359.5" r="3.5" fill="black"/>
  <circle cx="254.5" cy="373.8" r="3.5" fill="black"/>
  <circle cx="282.5" cy="384.9" r="3.5" fill="black"/>
  <circle cx="289.9" cy="386.1" r="3.5" fill="black"/>
  <circle cx="300.0" cy="386.7" r="3.5" fill="black"/>
  <circle cx="315.0" cy="385.4" r="3.5" fill="black"/>
  <circle cx="341.1" cy="376.3" r="3.5" fill="black"/>
  <circle cx="347.6" cy="372.4" r="3.5" fill="black"/>
  <circle cx="363.0" cy="359.5" r="3.5" fill="black"/>
  <circle cx="373.8" cy="345.5" r="3.5" fill="black"/>
  <circle cx="384.3" cy="320.0" r="3.5" fill="black"/>
  <circle cx="386.6" cy="302.5" r="3.5" fill="black"/>
  <circle cx="386.7" cy="300.0" r="3.5" fill="black"/>
  <circle cx="385.4" cy="285.0" r="3.5" fill="black"/>
  <circle cx="376.3" cy="258.9" r="3.5" fill="black"/>
  <circle cx="363.0" cy="240.5" r="3.5" fill="black"/>
  <circle cx="345.5" cy="226.2" r="3.5" fill="black"/>
  <circle cx="315.0" cy="214.6" r="3.5" fill="black"/>
  <circle cx="300.0" cy="213.3" r="3.5" fill="black"/>
  <circle cx="285.0" cy="214.6" r="3.5" fill="black"/>
  <circle cx="256.7" cy="224.9" r="3.5" fill="black"/>
  <circle cx="240.5" cy="237.0" r="3.5" fill="black"/>
  <circle cx="226.2" cy="254.5" r="3.5" fill="black"/>
  <circle cx="214.2" cy="287.4" r="3.5" fill="black"/>
  <circle cx="213.3" cy="300.0" r="3.5" fill="black"/>
  <circle cx="187.4" cy="365.0" r="3.5" fill="black"/>
  <circle cx="208.1" cy="391.9" r="3.5" fill="black"/>
  <circle cx="235.0" cy="412.6" r="3.5" fill="black"/>
  <circle cx="277.4" cy="428.0" r="3.5" fill="black"/>
  <circle cx="322.6" cy="428.0" r="3.5" fill="black"/>
  <circle cx="365.0" cy="412.6" r="3.5" fill="black"/>
  <circle cx="391.9" cy="391.9" r="3.5" fill="black"/>
  <circle cx="412.6" cy="365.0" r="3.5" fill="black"/>
  <circle cx="428.0" cy="322.6" r="3.5" fill="black"/>
  <circle cx="429.9" cy="303.8" r="3.5" fill="black"/>
  <circle cx="430.0" cy="300.0" r="3.5" fill="black"/>
  <circle cx="428.6" cy="281.2" r="3.5" fill="black"/>
  <circle cx="414.4" cy="238.3" r="3.5" fill="black"/>
  <circle cx="394.6" cy="210.8" r="3.5" fill="black"/>
  <circle cx="368.3" cy="189.4" r="3.5" fill="black"/>
  <circle cx="322.6" cy="172.0" r="3.5" fill="black"/>
  <circle cx="277.4" cy="172.0" r="3.5" fill="black"/>
  <circle cx="238.3" cy="185.6" r="3.5" fill="black"/>
  <circle cx="210.8" cy="205.4" r="3.5" fill="black"/>
  <circle cx="187.4" cy="235.0" r="3.5" fill="black"/>
  <circle cx="170.0" cy="300.0" r="3.5" fill="black"/>
  <circle cx="147.4" cy="382.3" r="3.5" fill="black"/>
  <circle cx="209.0" cy="447.5" r="3.5" fill="black"/>
  <circle cx="274.9" cy="471.5" r="3.5" fill="black"/>
  <circle cx="300.0" cy="473.3" r="3.5" fill="black"/>
  <circle cx="330.1" cy="470.7" r="3.5" fill="black"/>
  <circle cx="382.3" cy="452.6" r="3.5" fill="black"/>
  <circle cx="450.1" cy="386.7" r="3.5" fill="black"/>
  <circle cx="461.1" cy="364.0" r="3.5" fill="black"/>
  <circle cx="470.7" cy="330.1" r="3.5" fill="black"/>
  <circle cx="473.3" cy="305.1" r="3.5" fill="black"/>
  <circle cx="473.3" cy="300.0" r="3.5" fill="black"/>
  <circle cx="470.7" cy="269.9" r="3.5" fill="black"/>
  <circle cx="462.9" cy="240.7" r="3.5" fill="black"/>
  <circle cx="450.1" cy="213.3" r="3.5" fill="black"/>
  <circle cx="386.7" cy="149.9" r="3.5" fill="black"/>
  <circle cx="330.1" cy="129.3" r="3.5" fill="black"/>
  <circle cx="300.0" cy="126.7" r="3.5" fill="black"/>
  <circle cx="269.9" cy="129.3" r="3.5" fill="black"/>
  <circle cx="213.3" cy="149.9" r="3.5" fill="black"/>
  <circle cx="149.9" cy="213.3" r="3.5" fill="black"/>
  <circle cx="126.7" cy="300.0" r="3.5" fill="black"/>
  <circle cx="90.7" cy="356.1" r="3.5" fill="black"/>
  <circle cx="146.8" cy="453.2" r="3.5" fill="black"/>
  <circle cx="262.4" cy="513.4" r="3.5" fill="black"/>
  <circle cx="453.2" cy="453.2" r="3.5" fill="black"/>
  <circle cx="509.3" cy="356.1" r="3.5" fill="black"/>
  <circle cx="515.2" cy="325.2" r="3.5" fill="black"/>
  <circle cx="516.3" cy="287.4" r="3.5" fill="black"/>
  <circle cx="509.3" cy="243.9" r="3.5" fill="black"/>
  <circle cx="453.2" cy="146.8" r="3.5" fill="black"/>
  <circle cx="337.6" cy="86.6" r="3.5" fill="black"/>
  <circle cx="262.4" cy="86.6" r="3.5" fill="black"/>
  <circle cx="90.7" cy="243.9" r="3.5" fill="black"/>
  <circle cx="83.3" cy="300.0" r="3.5" fill="black"/>
  <text x="300.0" y="30" font-family="Arial" font-size="16" font-weight="bold" text-anchor="middle">Humphrey Central 80-Point Screening</text>
  <text x="300.0" y="585" font-family="Arial" font-size="11" fill="#666" text-anchor="middle">OD · 90 pts (polar direct, θ = n×15°/9)</text>
</svg>