<svg xmlns="http://www.w3.org/2000/svg" width="700" height="700" viewBox="0 0 700 700">
  <rect width="700" height="700" fill="white"/>
  <g stroke="#999" stroke-width="0.5" fill="none">
    <circle cx="350.0" cy="350.0" r="43.33333333333333"/>
    <circle cx="350.0" cy="350.0" r="86.66666666666666"/>
    <circle cx="350.0" cy="350.0" r="173.33333333333331"/>
    <circle cx="350.0" cy="350.0" r="260.0"/>
    <line x1="350.0" y1="350.0" x2="610.0" y2="350.0"/>
    <line x1="350.0" y1="350.0" x2="601.1" y2="282.7"/>
    <line x1="350.0" y1="350.0" x2="575.2" y2="220.0"/>
    <line x1="350.0" y1="350.0" x2="533.8" y2="166.2"/>
    <line x1="350.0" y1="350.0" x2="480.0" y2="124.8"/>
    <line x1="350.0" y1="350.0" x2="417.3" y2="98.9"/>
    <line x1="350.0" y1="350.0" x2="350.0" y2="90.0"/>
    <line x1="350.0" y1="350.0" x2="282.7" y2="98.9"/>
    <line x1="350.0" y1="350.0" x2="220.0" y2="124.8"/>
    <line x1="350.0" y1="350.0" x2="166.2" y2="166.2"/>
    <line x1="350.0" y1="350.0" x2="124.8" y2="220.0"/>
    <line x1="350.0" y1="350.0" x2="98.9" y2="282.7"/>
    <line x1="350.0" y1="350.0" x2="90.0" y2="350.0"/>
    <line x1="350.0" y1="350.0" x2="98.9" y2="417.3"/>
    <line x1="350.0" y1="350.0" x2="124.8" y2="480.0"/>
    <line x1="350.0" y1="350.0" x2="166.2" y2="533.8"/>
    <line x1="350.0" y1="350.0" x2="220.0" y2="575.2"/>
    <line x1="350.0" y1="350.0" x2="282.7" y2="601.1"/>
    <line x1="350.0" y1="350.0" x2="350.0" y2="610.0"/>
    <line x1="350.0" y1="350.0" x2="417.3" y2="601.1"/>
    <line x1="350.0" y1="350.0" x2="480.0" y2="575.2"/>
    <line x1="350.0" y1="350.0" x2="533.8" y2="533.8"/>
    <line x1="350.0" y1="350.0" x2="575.2" y2="480.0"/>
    <line x1="350.0" y1="350.0" x2="601.1" y2="417.3"/>
  </g>
  <line x1="90.0" y1="350.0" x2="610.0" y2="350.0" stroke="black" stroke-width="1.2"/>
  <line x1="350.0" y1="90.0" x2="350.0" y2="610.0" stroke="black" stroke-width="1.2"/>
  <text x="353.0" y="446.66666666666663" font-family="Arial" font-size="10" fill="#666">10°</text>
  <text x="353.0" y="533.3333333333333" font-family="Arial" font-size="10" fill="#666">20°</text>
  <text x="353.0" y="620.0" font-family="Arial" font-size="10" fill="#666">30°</text>
  <circle cx="332.7" cy="358.7" r="3" fill="black"/>
  <circle cx="367.3" cy="358.7" r="3" fill="black"/>
  <circle cx="367.3" cy="332.7" r="3" fill="black"/>
  <circle cx="332.7" cy="332.7" r="3" fill="black"/>
  <circle cx="315.3" cy="358.7" r="3" fill="black"/>
  <circle cx="376.0" cy="376.0" r="3" fill="black"/>
  <circle cx="332.7" cy="384.7" r="3" fill="black"/>
  <circle cx="367.3" cy="384.7" r="3" fill="black"/>
  <circle cx="384.7" cy="332.7" r="3" fill="black"/>
  <circle cx="315.3" cy="332.7" r="3" fill="black"/>
  <circle cx="315.3" cy="376.0" r="3" fill="black"/>
  <circle cx="376.0" cy="315.3" r="3" fill="black"/>
  <circle cx="393.3" cy="358.7" r="3" fill="black"/>
  <circle cx="367.3" cy="306.7" r="3" fill="black"/>
  <circle cx="332.7" cy="306.7" r="3" fill="black"/>
  <circle cx="315.3" cy="315.3" r="3" fill="black"/>
  <circle cx="367.3" cy="402.0" r="3" fill="black"/>
  <circle cx="306.7" cy="393.3" r="3" fill="black"/>
  <circle cx="393.3" cy="393.3" r="3" fill="black"/>
  <circle cx="289.3" cy="367.3" r="3" fill="black"/>
  <circle cx="410.7" cy="367.3" r="3" fill="black"/>
  <circle cx="324.0" cy="410.7" r="3" fill="black"/>
  <circle cx="410.7" cy="324.0" r="3" fill="black"/>
  <circle cx="376.0" cy="289.3" r="3" fill="black"/>
  <circle cx="324.0" cy="289.3" r="3" fill="black"/>
  <circle cx="289.3" cy="324.0" r="3" fill="black"/>
  <circle cx="393.3" cy="298.0" r="3" fill="black"/>
  <circle cx="306.7" cy="298.0" r="3" fill="black"/>
  <circle cx="419.3" cy="384.7" r="3" fill="black"/>
  <circle cx="332.7" cy="428.0" r="3" fill="black"/>
  <circle cx="367.3" cy="428.0" r="3" fill="black"/>
  <circle cx="306.7" cy="419.3" r="3" fill="black"/>
  <circle cx="393.3" cy="419.3" r="3" fill="black"/>
  <circle cx="419.3" cy="306.7" r="3" fill="black"/>
  <circle cx="289.3" cy="410.7" r="3" fill="black"/>
  <circle cx="410.7" cy="410.7" r="3" fill="black"/>
  <circle cx="410.7" cy="289.3" r="3" fill="black"/>
  <circle cx="263.3" cy="358.7" r="3" fill="black"/>
  <circle cx="436.7" cy="358.7" r="3" fill="black"/>
  <circle cx="436.7" cy="332.7" r="3" fill="black"/>
  <circle cx="367.3" cy="263.3" r="3" fill="black"/>
  <circle cx="332.7" cy="263.3" r="3" fill="black"/>
  <circle cx="263.3" cy="332.7" r="3" fill="black"/>
  <circle cx="272.0" cy="393.3" r="3" fill="black"/>
  <circle cx="393.3" cy="272.0" r="3" fill="black"/>
  <circle cx="306.7" cy="272.0" r="3" fill="black"/>
  <circle cx="289.3" cy="280.7" r="3" fill="black"/>
  <circle cx="272.0" cy="298.0" r="3" fill="black"/>
  <circle cx="298.0" cy="436.7" r="3" fill="black"/>
  <circle cx="402.0" cy="436.7" r="3" fill="black"/>
  <circle cx="272.0" cy="419.3" r="3" fill="black"/>
  <circle cx="332.7" cy="454.0" r="3" fill="black"/>
  <circle cx="367.3" cy="454.0" r="3" fill="black"/>
  <circle cx="454.0" cy="367.3" r="3" fill="black"/>
  <circle cx="454.0" cy="332.7" r="3" fill="black"/>
  <circle cx="254.7" cy="402.0" r="3" fill="black"/>
  <circle cx="445.3" cy="402.0" r="3" fill="black"/>
  <circle cx="445.3" cy="298.0" r="3" fill="black"/>
  <circle cx="402.0" cy="254.7" r="3" fill="black"/>
  <circle cx="298.0" cy="254.7" r="3" fill="black"/>
  <circle cx="428.0" cy="428.0" r="3" fill="black"/>
  <circle cx="428.0" cy="272.0" r="3" fill="black"/>
  <circle cx="272.0" cy="272.0" r="3" fill="black"/>
  <circle cx="254.7" cy="289.3" r="3" fill="black"/>
  <circle cx="367.3" cy="237.3" r="3" fill="black"/>
  <circle cx="332.7" cy="237.3" r="3" fill="black"/>
  <circle cx="367.3" cy="471.3" r="3" fill="black"/>
  <circle cx="436.7" cy="436.7" r="3" fill="black"/>
  <circle cx="324.0" cy="471.3" r="3" fill="black"/>
  <circle cx="471.3" cy="324.0" r="3" fill="black"/>
  <circle cx="280.7" cy="454.0" r="3" fill="black"/>
  <circle cx="237.3" cy="410.7" r="3" fill="black"/>
  <circle cx="410.7" cy="462.7" r="3" fill="black"/>
  <circle cx="462.7" cy="410.7" r="3" fill="black"/>
  <circle cx="410.7" cy="237.3" r="3" fill="black"/>
  <circle cx="254.7" cy="436.7" r="3" fill="black"/>
  <circle cx="480.0" cy="367.3" r="3" fill="black"/>
  <circle cx="367.3" cy="220.0" r="3" fill="black"/>
  <circle cx="462.7" cy="280.7" r="3" fill="black"/>
  <circle cx="237.3" cy="280.7" r="3" fill="black"/>
  <circle cx="324.0" cy="220.0" r="3" fill="black"/>
  <circle cx="445.3" cy="254.7" r="3" fill="black"/>
  <circle cx="254.7" cy="254.7" r="3" fill="black"/>
  <circle cx="280.7" cy="228.7" r="3" fill="black"/>
  <circle cx="454.0" cy="454.0" r="3" fill="black"/>
  <circle cx="480.0" cy="419.3" r="3" fill="black"/>
  <circle cx="324.0" cy="497.3" r="3" fill="black"/>
  <circle cx="376.0" cy="497.3" r="3" fill="black"/>
  <circle cx="497.3" cy="376.0" r="3" fill="black"/>
  <circle cx="497.3" cy="324.0" r="3" fill="black"/>
  <circle cx="272.0" cy="480.0" r="3" fill="black"/>
  <circle cx="428.0" cy="480.0" r="3" fill="black"/>
  <circle cx="480.0" cy="272.0" r="3" fill="black"/>
  <circle cx="220.0" cy="272.0" r="3" fill="black"/>
  <circle cx="237.3" cy="454.0" r="3" fill="black"/>
  <circle cx="454.0" cy="237.3" r="3" fill="black"/>
  <circle cx="211.3" cy="419.3" r="3" fill="black"/>
  <circle cx="376.0" cy="194.0" r="3" fill="black"/>
  <circle cx="324.0" cy="194.0" r="3" fill="black"/>
  <circle cx="428.0" cy="211.3" r="3" fill="black"/>
  <circle cx="272.0" cy="211.3" r="3" fill="black"/>
  <circle cx="237.3" cy="237.3" r="3" fill="black"/>
  <circle cx="376.0" cy="514.7" r="3" fill="black"/>
  <circle cx="315.3" cy="514.7" r="3" fill="black"/>
  <circle cx="263.3" cy="497.3" r="3" fill="black"/>
  <circle cx="436.7" cy="497.3" r="3" fill="black"/>
  <circle cx="497.3" cy="436.7" r="3" fill="black"/>
  <circle cx="497.3" cy="263.3" r="3" fill="black"/>
  <circle cx="471.3" cy="471.3" r="3" fill="black"/>
  <circle cx="471.3" cy="228.7" r="3" fill="black"/>
  <circle cx="194.0" cy="428.0" r="3" fill="black"/>
  <circle cx="523.3" cy="376.0" r="3" fill="black"/>
  <circle cx="376.0" cy="176.7" r="3" fill="black"/>
  <circle cx="514.7" cy="410.7" r="3" fill="black"/>
  <circle cx="514.7" cy="289.3" r="3" fill="black"/>
  <circle cx="202.7" cy="254.7" r="3" fill="black"/>
  <circle cx="523.3" cy="315.3" r="3" fill="black"/>
  <circle cx="315.3" cy="176.7" r="3" fill="black"/>
  <circle cx="220.0" cy="471.3" r="3" fill="black"/>
  <circle cx="228.7" cy="220.0" r="3" fill="black"/>
  <circle cx="436.7" cy="194.0" r="3" fill="black"/>
  <circle cx="263.3" cy="194.0" r="3" fill="black"/>
  <circle cx="445.3" cy="514.7" r="3" fill="black"/>
  <circle cx="514.7" cy="445.3" r="3" fill="black"/>
  <circle cx="532.0" cy="410.7" r="3" fill="black"/>
  <circle cx="315.3" cy="540.7" r="3" fill="black"/>
  <circle cx="384.7" cy="540.7" r="3" fill="black"/>
  <circle cx="540.7" cy="384.7" r="3" fill="black"/>
  <circle cx="540.7" cy="315.3" r="3" fill="black"/>
  <circle cx="246.0" cy="514.7" r="3" fill="black"/>
  <circle cx="532.0" cy="280.7" r="3" fill="black"/>
  <circle cx="514.7" cy="246.0" r="3" fill="black"/>
  <circle cx="159.3" cy="393.3" r="3" fill="black"/>
  <circle cx="211.3" cy="488.7" r="3" fill="black"/>
  <circle cx="488.7" cy="488.7" r="3" fill="black"/>
  <circle cx="488.7" cy="211.3" r="3" fill="black"/>
  <circle cx="159.3" cy="298.0" r="3" fill="black"/>
  <circle cx="176.7" cy="445.3" r="3" fill="black"/>
  <circle cx="445.3" cy="176.7" r="3" fill="black"/>
  <circle cx="254.7" cy="176.7" r="3" fill="black"/>
  <circle cx="176.7" cy="246.0" r="3" fill="black"/>
  <circle cx="384.7" cy="150.7" r="3" fill="black"/>
  <circle cx="315.3" cy="150.7" r="3" fill="black"/>
  <circle cx="211.3" cy="202.7" r="3" fill="black"/>
  <circle cx="558.0" cy="384.7" r="3" fill="black"/>
  <circle cx="549.3" cy="419.3" r="3" fill="black"/>
  <circle cx="558.0" cy="306.7" r="3" fill="black"/>
  <circle cx="549.3" cy="272.0" r="3" fill="black"/>
  <circle cx="575.3" cy="393.3" r="3" fill="black"/>
  <circle cx="566.7" cy="428.0" r="3" fill="black"/>
  <circle cx="514.7" cy="514.7" r="3" fill="black"/>
  <circle cx="384.7" cy="584.0" r="3" fill="black"/>
  <circle cx="306.7" cy="584.0" r="3" fill="black"/>
  <circle cx="584.0" cy="306.7" r="3" fill="black"/>
  <circle cx="176.7" cy="514.7" r="3" fill="black"/>
  <circle cx="514.7" cy="176.7" r="3" fill="black"/>
  <circle cx="575.3" cy="263.3" r="3" fill="black"/>
  <circle cx="116.0" cy="410.7" r="3" fill="black"/>
  <circle cx="116.0" cy="280.7" r="3" fill="black"/>
  <circle cx="176.7" cy="176.7" r="3" fill="black"/>
  <circle cx="393.3" cy="107.3" r="3" fill="black"/>
  <circle cx="306.7" cy="107.3" r="3" fill="black"/>
  <circle cx="168.0" cy="532.0" r="3" fill="black"/>
  <circle cx="159.3" cy="159.3" r="3" fill="black"/>
  <text x="350.0" y="30" font-family="Arial" font-size="16" font-weight="bold" text-anchor="middle">Humphrey Central 166-Point Screening</text>
  <text x="350.0" y="685" font-family="Arial" font-size="11" fill="#666" text-anchor="middle">OD · 164 points (dense polar arrangement, Fig 56)</text>
</svg>