<svg xmlns="http://www.w3.org/2000/svg" width="600" height="600" viewBox="0 0 600 600">
  <rect width="600" height="600" fill="white"/>
  <g stroke="#999" stroke-width="0.5" fill="none">
    <circle cx="300.0" cy="300.0" r="40.0"/>
    <circle cx="300.0" cy="300.0" r="80.0"/>
    <circle cx="300.0" cy="300.0" r="160.0"/>
    <circle cx="300.0" cy="300.0" r="240.0"/>
    <line x1="300.0" y1="300.0" x2="540.0" y2="300.0"/>
    <line x1="300.0" y1="300.0" x2="507.8" y2="180.0"/>
    <line x1="300.0" y1="300.0" x2="420.0" y2="92.2"/>
    <line x1="300.0" y1="300.0" x2="300.0" y2="60.0"/>
    <line x1="300.0" y1="300.0" x2="180.0" y2="92.2"/>
    <line x1="300.0" y1="300.0" x2="92.2" y2="180.0"/>
    <line x1="300.0" y1="300.0" x2="60.0" y2="300.0"/>
    <line x1="300.0" y1="300.0" x2="92.2" y2="420.0"/>
    <line x1="300.0" y1="300.0" x2="180.0" y2="507.8"/>
    <line x1="300.0" y1="300.0" x2="300.0" y2="540.0"/>
    <line x1="300.0" y1="300.0" x2="420.0" y2="507.8"/>
    <line x1="300.0" y1="300.0" x2="507.8" y2="420.0"/>
  </g>
  <line x1="60.0" y1="300.0" x2="540.0" y2="300.0" stroke="black" stroke-width="1.2"/>
  <line x1="300.0" y1="60.0" x2="300.0" y2="540.0" stroke="black" stroke-width="1.2"/>
  <text x="303.0" y="390.0" font-family="Arial" font-size="10" fill="#666">10°</text>
  <text x="303.0" y="470.0" font-family="Arial" font-size="10" fill="#666">20°</text>
  <text x="303.0" y="550.0" font-family="Arial" font-size="10" fill="#666">30°</text>
  <circle cx="276.0" cy="300.0" r="4" fill="black"/>
  <circle cx="276.0" cy="316.0" r="4" fill="black"/>
  <circle cx="324.0" cy="316.0" r="4" fill="black"/>
  <circle cx="324.0" cy="284.0" r="4" fill="black"/>
  <circle cx="276.0" cy="284.0" r="4" fill="black"/>
  <circle cx="252.0" cy="316.0" r="4" fill="black"/>
  <circle cx="348.0" cy="316.0" r="4" fill="black"/>
  <circle cx="348.0" cy="284.0" r="4" fill="black"/>
  <circle cx="316.0" cy="252.0" r="4" fill="black"/>
  <circle cx="284.0" cy="252.0" r="4" fill="black"/>
  <circle cx="252.0" cy="284.0" r="4" fill="black"/>
  <circle cx="284.0" cy="356.0" r="4" fill="black"/>
  <circle cx="316.0" cy="356.0" r="4" fill="black"/>
  <circle cx="244.0" cy="356.0" r="4" fill="black"/>
  <circle cx="356.0" cy="356.0" r="4" fill="black"/>
  <circle cx="356.0" cy="244.0" r="4" fill="black"/>
  <circle cx="244.0" cy="244.0" r="4" fill="black"/>
  <circle cx="284.0" cy="380.0" r="4" fill="black"/>
  <circle cx="316.0" cy="380.0" r="4" fill="black"/>
  <circle cx="380.0" cy="284.0" r="4" fill="black"/>
  <circle cx="316.0" cy="220.0" r="4" fill="black"/>
  <circle cx="284.0" cy="220.0" r="4" fill="black"/>
  <circle cx="220.0" cy="284.0" r="4" fill="black"/>
  <circle cx="228.0" cy="340.0" r="4" fill="black"/>
  <circle cx="260.0" cy="372.0" r="4" fill="black"/>
  <circle cx="340.0" cy="372.0" r="4" fill="black"/>
  <circle cx="372.0" cy="340.0" r="4" fill="black"/>
  <circle cx="372.0" cy="260.0" r="4" fill="black"/>
  <circle cx="340.0" cy="228.0" r="4" fill="black"/>
  <circle cx="260.0" cy="228.0" r="4" fill="black"/>
  <circle cx="228.0" cy="260.0" r="4" fill="black"/>
  <circle cx="196.0" cy="300.0" r="4" fill="black"/>
  <circle cx="404.0" cy="356.0" r="4" fill="black"/>
  <circle cx="420.0" cy="284.0" r="4" fill="black"/>
  <circle cx="196.0" cy="364.0" r="4" fill="black"/>
  <circle cx="404.0" cy="236.0" r="4" fill="black"/>
  <circle cx="364.0" cy="196.0" r="4" fill="black"/>
  <circle cx="324.0" cy="420.0" r="4" fill="black"/>
  <circle cx="420.0" cy="324.0" r="4" fill="black"/>
  <circle cx="324.0" cy="180.0" r="4" fill="black"/>
  <circle cx="276.0" cy="180.0" r="4" fill="black"/>
  <circle cx="212.0" cy="388.0" r="4" fill="black"/>
  <circle cx="388.0" cy="388.0" r="4" fill="black"/>
  <circle cx="388.0" cy="212.0" r="4" fill="black"/>
  <circle cx="212.0" cy="212.0" r="4" fill="black"/>
  <circle cx="236.0" cy="412.0" r="4" fill="black"/>
  <circle cx="364.0" cy="412.0" r="4" fill="black"/>
  <circle cx="236.0" cy="188.0" r="4" fill="black"/>
  <circle cx="188.0" cy="236.0" r="4" fill="black"/>
  <circle cx="276.0" cy="428.0" r="4" fill="black"/>
  <circle cx="380.0" cy="164.0" r="4" fill="black"/>
  <circle cx="324.0" cy="460.0" r="4" fill="black"/>
  <circle cx="460.0" cy="276.0" r="4" fill="black"/>
  <circle cx="324.0" cy="140.0" r="4" fill="black"/>
  <circle cx="276.0" cy="140.0" r="4" fill="black"/>
  <circle cx="452.0" cy="356.0" r="4" fill="black"/>
  <circle cx="452.0" cy="244.0" r="4" fill="black"/>
  <circle cx="268.0" cy="460.0" r="4" fill="black"/>
  <circle cx="460.0" cy="332.0" r="4" fill="black"/>
  <circle cx="156.0" cy="380.0" r="4" fill="black"/>
  <circle cx="380.0" cy="444.0" r="4" fill="black"/>
  <circle cx="444.0" cy="380.0" r="4" fill="black"/>
  <circle cx="444.0" cy="220.0" r="4" fill="black"/>
  <circle cx="220.0" cy="156.0" r="4" fill="black"/>
  <circle cx="156.0" cy="220.0" r="4" fill="black"/>
  <circle cx="212.0" cy="444.0" r="4" fill="black"/>
  <circle cx="476.0" cy="300.0" r="4" fill="black"/>
  <circle cx="500.0" cy="324.0" r="4" fill="black"/>
  <circle cx="156.0" cy="444.0" r="4" fill="black"/>
  <circle cx="444.0" cy="444.0" r="4" fill="black"/>
  <circle cx="444.0" cy="156.0" r="4" fill="black"/>
  <circle cx="156.0" cy="156.0" r="4" fill="black"/>
  <circle cx="100.0" cy="348.0" r="4" fill="black"/>
  <circle cx="500.0" cy="356.0" r="4" fill="black"/>
  <circle cx="500.0" cy="244.0" r="4" fill="black"/>
  <circle cx="100.0" cy="244.0" r="4" fill="black"/>
  <circle cx="508.0" cy="284.0" r="4" fill="black"/>
  <circle cx="332.0" cy="508.0" r="4" fill="black"/>
  <circle cx="332.0" cy="92.0" r="4" fill="black"/>
  <circle cx="268.0" cy="92.0" r="4" fill="black"/>
  <circle cx="260.0" cy="508.0" r="4" fill="black"/>
  <text x="300.0" y="30" font-family="Arial" font-size="16" font-weight="bold" text-anchor="middle">Humphrey Central 80-Point Screening</text>
  <text x="300.0" y="585" font-family="Arial" font-size="11" fill="#666" text-anchor="middle">OD · 81 points (polar arrangement, Fig 55)</text>
</svg>