<svg xmlns="http://www.w3.org/2000/svg" width="700" height="700" viewBox="0 0 700 700">
  <rect width="700" height="700" fill="white"/>
  <g stroke="#aaa" stroke-width="0.4" fill="none">
    <circle cx="350.0" cy="350.0" r="50.0"/>
    <circle cx="350.0" cy="350.0" r="100.0"/>
    <circle cx="350.0" cy="350.0" r="150.0"/>
    <circle cx="350.0" cy="350.0" r="200.0"/>
    <circle cx="350.0" cy="350.0" r="250.0"/>
    <circle cx="350.0" cy="350.0" r="300.0"/>
  </g>
  <g stroke="#d0d0d0" stroke-width="0.3" fill="none">
    <line x1="350.0" y1="350.0" x2="649.9" y2="341.3"/>
    <line x1="350.0" y1="350.0" x2="649.5" y2="332.6"/>
    <line x1="350.0" y1="350.0" x2="648.9" y2="323.9"/>
    <line x1="350.0" y1="350.0" x2="648.0" y2="315.2"/>
    <line x1="350.0" y1="350.0" x2="646.8" y2="306.5"/>
    <line x1="350.0" y1="350.0" x2="645.4" y2="297.9"/>
    <line x1="350.0" y1="350.0" x2="643.8" y2="289.3"/>
    <line x1="350.0" y1="350.0" x2="641.9" y2="280.8"/>
    <line x1="350.0" y1="350.0" x2="637.4" y2="264.0"/>
    <line x1="350.0" y1="350.0" x2="634.8" y2="255.6"/>
    <line x1="350.0" y1="350.0" x2="631.9" y2="247.4"/>
    <line x1="350.0" y1="350.0" x2="628.8" y2="239.2"/>
    <line x1="350.0" y1="350.0" x2="625.5" y2="231.2"/>
    <line x1="350.0" y1="350.0" x2="621.9" y2="223.2"/>
    <line x1="350.0" y1="350.0" x2="618.1" y2="215.4"/>
    <line x1="350.0" y1="350.0" x2="614.1" y2="207.6"/>
    <line x1="350.0" y1="350.0" x2="605.3" y2="192.5"/>
    <line x1="350.0" y1="350.0" x2="600.6" y2="185.1"/>
    <line x1="350.0" y1="350.0" x2="595.7" y2="177.9"/>
    <line x1="350.0" y1="350.0" x2="590.6" y2="170.9"/>
    <line x1="350.0" y1="350.0" x2="585.3" y2="163.9"/>
    <line x1="350.0" y1="350.0" x2="579.8" y2="157.2"/>
    <line x1="350.0" y1="350.0" x2="574.1" y2="150.6"/>
    <line x1="350.0" y1="350.0" x2="568.2" y2="144.1"/>
    <line x1="350.0" y1="350.0" x2="555.9" y2="131.8"/>
    <line x1="350.0" y1="350.0" x2="549.4" y2="125.9"/>
    <line x1="350.0" y1="350.0" x2="542.8" y2="120.2"/>
    <line x1="350.0" y1="350.0" x2="536.1" y2="114.7"/>
    <line x1="350.0" y1="350.0" x2="529.1" y2="109.4"/>
    <line x1="350.0" y1="350.0" x2="522.1" y2="104.3"/>
    <line x1="350.0" y1="350.0" x2="514.9" y2="99.4"/>
    <line x1="350.0" y1="350.0" x2="507.5" y2="94.7"/>
    <line x1="350.0" y1="350.0" x2="492.4" y2="85.9"/>
    <line x1="350.0" y1="350.0" x2="484.6" y2="81.9"/>
    <line x1="350.0" y1="350.0" x2="476.8" y2="78.1"/>
    <line x1="350.0" y1="350.0" x2="468.8" y2="74.5"/>
    <line x1="350.0" y1="350.0" x2="460.8" y2="71.2"/>
    <line x1="350.0" y1="350.0" x2="452.6" y2="68.1"/>
    <line x1="350.0" y1="350.0" x2="444.4" y2="65.2"/>
    <line x1="350.0" y1="350.0" x2="436.0" y2="62.6"/>
    <line x1="350.0" y1="350.0" x2="419.2" y2="58.1"/>
    <line x1="350.0" y1="350.0" x2="410.7" y2="56.2"/>
    <line x1="350.0" y1="350.0" x2="402.1" y2="54.6"/>
    <line x1="350.0" y1="350.0" x2="393.5" y2="53.2"/>
    <line x1="350.0" y1="350.0" x2="384.8" y2="52.0"/>
    <line x1="350.0" y1="350.0" x2="376.1" y2="51.1"/>
    <line x1="350.0" y1="350.0" x2="367.4" y2="50.5"/>
    <line x1="350.0" y1="350.0" x2="358.7" y2="50.1"/>
    <line x1="350.0" y1="350.0" x2="341.3" y2="50.1"/>
    <line x1="350.0" y1="350.0" x2="332.6" y2="50.5"/>
    <line x1="350.0" y1="350.0" x2="323.9" y2="51.1"/>
    <line x1="350.0" y1="350.0" x2="315.2" y2="52.0"/>
    <line x1="350.0" y1="350.0" x2="306.5" y2="53.2"/>
    <line x1="350.0" y1="350.0" x2="297.9" y2="54.6"/>
    <line x1="350.0" y1="350.0" x2="289.3" y2="56.2"/>
    <line x1="350.0" y1="350.0" x2="280.8" y2="58.1"/>
    <line x1="350.0" y1="350.0" x2="264.0" y2="62.6"/>
    <line x1="350.0" y1="350.0" x2="255.6" y2="65.2"/>
    <line x1="350.0" y1="350.0" x2="247.4" y2="68.1"/>
    <line x1="350.0" y1="350.0" x2="239.2" y2="71.2"/>
    <line x1="350.0" y1="350.0" x2="231.2" y2="74.5"/>
    <line x1="350.0" y1="350.0" x2="223.2" y2="78.1"/>
    <line x1="350.0" y1="350.0" x2="215.4" y2="81.9"/>
    <line x1="350.0" y1="350.0" x2="207.6" y2="85.9"/>
    <line x1="350.0" y1="350.0" x2="192.5" y2="94.7"/>
    <line x1="350.0" y1="350.0" x2="185.1" y2="99.4"/>
    <line x1="350.0" y1="350.0" x2="177.9" y2="104.3"/>
    <line x1="350.0" y1="350.0" x2="170.9" y2="109.4"/>
    <line x1="350.0" y1="350.0" x2="163.9" y2="114.7"/>
    <line x1="350.0" y1="350.0" x2="157.2" y2="120.2"/>
    <line x1="350.0" y1="350.0" x2="150.6" y2="125.9"/>
    <line x1="350.0" y1="350.0" x2="144.1" y2="131.8"/>
    <line x1="350.0" y1="350.0" x2="131.8" y2="144.1"/>
    <line x1="350.0" y1="350.0" x2="125.9" y2="150.6"/>
    <line x1="350.0" y1="350.0" x2="120.2" y2="157.2"/>
    <line x1="350.0" y1="350.0" x2="114.7" y2="163.9"/>
    <line x1="350.0" y1="350.0" x2="109.4" y2="170.9"/>
    <line x1="350.0" y1="350.0" x2="104.3" y2="177.9"/>
    <line x1="350.0" y1="350.0" x2="99.4" y2="185.1"/>
    <line x1="350.0" y1="350.0" x2="94.7" y2="192.5"/>
    <line x1="350.0" y1="350.0" x2="85.9" y2="207.6"/>
    <line x1="350.0" y1="350.0" x2="81.9" y2="215.4"/>
    <line x1="350.0" y1="350.0" x2="78.1" y2="223.2"/>
    <line x1="350.0" y1="350.0" x2="74.5" y2="231.2"/>
    <line x1="350.0" y1="350.0" x2="71.2" y2="239.2"/>
    <line x1="350.0" y1="350.0" x2="68.1" y2="247.4"/>
    <line x1="350.0" y1="350.0" x2="65.2" y2="255.6"/>
    <line x1="350.0" y1="350.0" x2="62.6" y2="264.0"/>
    <line x1="350.0" y1="350.0" x2="58.1" y2="280.8"/>
    <line x1="350.0" y1="350.0" x2="56.2" y2="289.3"/>
    <line x1="350.0" y1="350.0" x2="54.6" y2="297.9"/>
    <line x1="350.0" y1="350.0" x2="53.2" y2="306.5"/>
    <line x1="350.0" y1="350.0" x2="52.0" y2="315.2"/>
    <line x1="350.0" y1="350.0" x2="51.1" y2="323.9"/>
    <line x1="350.0" y1="350.0" x2="50.5" y2="332.6"/>
    <line x1="350.0" y1="350.0" x2="50.1" y2="341.3"/>
    <line x1="350.0" y1="350.0" x2="50.1" y2="358.7"/>
    <line x1="350.0" y1="350.0" x2="50.5" y2="367.4"/>
    <line x1="350.0" y1="350.0" x2="51.1" y2="376.1"/>
    <line x1="350.0" y1="350.0" x2="52.0" y2="384.8"/>
    <line x1="350.0" y1="350.0" x2="53.2" y2="393.5"/>
    <line x1="350.0" y1="350.0" x2="54.6" y2="402.1"/>
    <line x1="350.0" y1="350.0" x2="56.2" y2="410.7"/>
    <line x1="350.0" y1="350.0" x2="58.1" y2="419.2"/>
    <line x1="350.0" y1="350.0" x2="62.6" y2="436.0"/>
    <line x1="350.0" y1="350.0" x2="65.2" y2="444.4"/>
    <line x1="350.0" y1="350.0" x2="68.1" y2="452.6"/>
    <line x1="350.0" y1="350.0" x2="71.2" y2="460.8"/>
    <line x1="350.0" y1="350.0" x2="74.5" y2="468.8"/>
    <line x1="350.0" y1="350.0" x2="78.1" y2="476.8"/>
    <line x1="350.0" y1="350.0" x2="81.9" y2="484.6"/>
    <line x1="350.0" y1="350.0" x2="85.9" y2="492.4"/>
    <line x1="350.0" y1="350.0" x2="94.7" y2="507.5"/>
    <line x1="350.0" y1="350.0" x2="99.4" y2="514.9"/>
    <line x1="350.0" y1="350.0" x2="104.3" y2="522.1"/>
    <line x1="350.0" y1="350.0" x2="109.4" y2="529.1"/>
    <line x1="350.0" y1="350.0" x2="114.7" y2="536.1"/>
    <line x1="350.0" y1="350.0" x2="120.2" y2="542.8"/>
    <line x1="350.0" y1="350.0" x2="125.9" y2="549.4"/>
    <line x1="350.0" y1="350.0" x2="131.8" y2="555.9"/>
    <line x1="350.0" y1="350.0" x2="144.1" y2="568.2"/>
    <line x1="350.0" y1="350.0" x2="150.6" y2="574.1"/>
    <line x1="350.0" y1="350.0" x2="157.2" y2="579.8"/>
    <line x1="350.0" y1="350.0" x2="163.9" y2="585.3"/>
    <line x1="350.0" y1="350.0" x2="170.9" y2="590.6"/>
    <line x1="350.0" y1="350.0" x2="177.9" y2="595.7"/>
    <line x1="350.0" y1="350.0" x2="185.1" y2="600.6"/>
    <line x1="350.0" y1="350.0" x2="192.5" y2="605.3"/>
    <line x1="350.0" y1="350.0" x2="207.6" y2="614.1"/>
    <line x1="350.0" y1="350.0" x2="215.4" y2="618.1"/>
    <line x1="350.0" y1="350.0" x2="223.2" y2="621.9"/>
    <line x1="350.0" y1="350.0" x2="231.2" y2="625.5"/>
    <line x1="350.0" y1="350.0" x2="239.2" y2="628.8"/>
    <line x1="350.0" y1="350.0" x2="247.4" y2="631.9"/>
    <line x1="350.0" y1="350.0" x2="255.6" y2="634.8"/>
    <line x1="350.0" y1="350.0" x2="264.0" y2="637.4"/>
    <line x1="350.0" y1="350.0" x2="280.8" y2="641.9"/>
    <line x1="350.0" y1="350.0" x2="289.3" y2="643.8"/>
    <line x1="350.0" y1="350.0" x2="297.9" y2="645.4"/>
    <line x1="350.0" y1="350.0" x2="306.5" y2="646.8"/>
    <line x1="350.0" y1="350.0" x2="315.2" y2="648.0"/>
    <line x1="350.0" y1="350.0" x2="323.9" y2="648.9"/>
    <line x1="350.0" y1="350.0" x2="332.6" y2="649.5"/>
    <line x1="350.0" y1="350.0" x2="341.3" y2="649.9"/>
    <line x1="350.0" y1="350.0" x2="358.7" y2="649.9"/>
    <line x1="350.0" y1="350.0" x2="367.4" y2="649.5"/>
    <line x1="350.0" y1="350.0" x2="376.1" y2="648.9"/>
    <line x1="350.0" y1="350.0" x2="384.8" y2="648.0"/>
    <line x1="350.0" y1="350.0" x2="393.5" y2="646.8"/>
    <line x1="350.0" y1="350.0" x2="402.1" y2="645.4"/>
    <line x1="350.0" y1="350.0" x2="410.7" y2="643.8"/>
    <line x1="350.0" y1="350.0" x2="419.2" y2="641.9"/>
    <line x1="350.0" y1="350.0" x2="436.0" y2="637.4"/>
    <line x1="350.0" y1="350.0" x2="444.4" y2="634.8"/>
    <line x1="350.0" y1="350.0" x2="452.6" y2="631.9"/>
    <line x1="350.0" y1="350.0" x2="460.8" y2="628.8"/>
    <line x1="350.0" y1="350.0" x2="468.8" y2="625.5"/>
    <line x1="350.0" y1="350.0" x2="476.8" y2="621.9"/>
    <line x1="350.0" y1="350.0" x2="484.6" y2="618.1"/>
    <line x1="350.0" y1="350.0" x2="492.4" y2="614.1"/>
    <line x1="350.0" y1="350.0" x2="507.5" y2="605.3"/>
    <line x1="350.0" y1="350.0" x2="514.9" y2="600.6"/>
    <line x1="350.0" y1="350.0" x2="522.1" y2="595.7"/>
    <line x1="350.0" y1="350.0" x2="529.1" y2="590.6"/>
    <line x1="350.0" y1="350.0" x2="536.1" y2="585.3"/>
    <line x1="350.0" y1="350.0" x2="542.8" y2="579.8"/>
    <line x1="350.0" y1="350.0" x2="549.4" y2="574.1"/>
    <line x1="350.0" y1="350.0" x2="555.9" y2="568.2"/>
    <line x1="350.0" y1="350.0" x2="568.2" y2="555.9"/>
    <line x1="350.0" y1="350.0" x2="574.1" y2="549.4"/>
    <line x1="350.0" y1="350.0" x2="579.8" y2="542.8"/>
    <line x1="350.0" y1="350.0" x2="585.3" y2="536.1"/>
    <line x1="350.0" y1="350.0" x2="590.6" y2="529.1"/>
    <line x1="350.0" y1="350.0" x2="595.7" y2="522.1"/>
    <line x1="350.0" y1="350.0" x2="600.6" y2="514.9"/>
    <line x1="350.0" y1="350.0" x2="605.3" y2="507.5"/>
    <line x1="350.0" y1="350.0" x2="614.1" y2="492.4"/>
    <line x1="350.0" y1="350.0" x2="618.1" y2="484.6"/>
    <line x1="350.0" y1="350.0" x2="621.9" y2="476.8"/>
    <line x1="350.0" y1="350.0" x2="625.5" y2="468.8"/>
    <line x1="350.0" y1="350.0" x2="628.8" y2="460.8"/>
    <line x1="350.0" y1="350.0" x2="631.9" y2="452.6"/>
    <line x1="350.0" y1="350.0" x2="634.8" y2="444.4"/>
    <line x1="350.0" y1="350.0" x2="637.4" y2="436.0"/>
    <line x1="350.0" y1="350.0" x2="641.9" y2="419.2"/>
    <line x1="350.0" y1="350.0" x2="643.8" y2="410.7"/>
    <line x1="350.0" y1="350.0" x2="645.4" y2="402.1"/>
    <line x1="350.0" y1="350.0" x2="646.8" y2="393.5"/>
    <line x1="350.0" y1="350.0" x2="648.0" y2="384.8"/>
    <line x1="350.0" y1="350.0" x2="648.9" y2="376.1"/>
    <line x1="350.0" y1="350.0" x2="649.5" y2="367.4"/>
    <line x1="350.0" y1="350.0" x2="649.9" y2="358.7"/>
  </g>
  <g stroke="#666" stroke-width="0.6" fill="none">
    <line x1="350.0" y1="350.0" x2="639.8" y2="272.4"/>
    <line x1="350.0" y1="350.0" x2="609.8" y2="200.0"/>
    <line x1="350.0" y1="350.0" x2="562.1" y2="137.9"/>
    <line x1="350.0" y1="350.0" x2="500.0" y2="90.2"/>
    <line x1="350.0" y1="350.0" x2="427.6" y2="60.2"/>
    <line x1="350.0" y1="350.0" x2="272.4" y2="60.2"/>
    <line x1="350.0" y1="350.0" x2="200.0" y2="90.2"/>
    <line x1="350.0" y1="350.0" x2="137.9" y2="137.9"/>
    <line x1="350.0" y1="350.0" x2="90.2" y2="200.0"/>
    <line x1="350.0" y1="350.0" x2="60.2" y2="272.4"/>
    <line x1="350.0" y1="350.0" x2="60.2" y2="427.6"/>
    <line x1="350.0" y1="350.0" x2="90.2" y2="500.0"/>
    <line x1="350.0" y1="350.0" x2="137.9" y2="562.1"/>
    <line x1="350.0" y1="350.0" x2="200.0" y2="609.8"/>
    <line x1="350.0" y1="350.0" x2="272.4" y2="639.8"/>
    <line x1="350.0" y1="350.0" x2="427.6" y2="639.8"/>
    <line x1="350.0" y1="350.0" x2="500.0" y2="609.8"/>
    <line x1="350.0" y1="350.0" x2="562.1" y2="562.1"/>
    <line x1="350.0" y1="350.0" x2="609.8" y2="500.0"/>
    <line x1="350.0" y1="350.0" x2="639.8" y2="427.6"/>
  </g>
  <line x1="50.0" y1="350.0" x2="650.0" y2="350.0" stroke="black" stroke-width="1.5"/>
  <line x1="350.0" y1="50.0" x2="350.0" y2="650.0" stroke="black" stroke-width="1.5"/>
  <text x="354.0" y="462.0" font-family="Arial" font-size="11" fill="#666">10°</text>
  <text x="354.0" y="562.0" font-family="Arial" font-size="11" fill="#666">20°</text>
  <text x="354.0" y="662.0" font-family="Arial" font-size="11" fill="#666">30°</text>
  <circle cx="348.7" cy="380.0" r="4" fill="black"/>
  <circle cx="372.7" cy="369.6" r="4" fill="black"/>
  <circle cx="323.5" cy="372.9" r="4" fill="black"/>
  <circle cx="376.8" cy="327.5" r="4" fill="black"/>
  <circle cx="322.9" cy="327.9" r="4" fill="black"/>
  <circle cx="303.0" cy="367.1" r="4" fill="black"/>
  <circle cx="332.9" cy="397.0" r="4" fill="black"/>
  <circle cx="367.1" cy="397.0" r="4" fill="black"/>
  <circle cx="396.5" cy="368.5" r="4" fill="black"/>
  <circle cx="397.0" cy="332.9" r="4" fill="black"/>
  <circle cx="367.8" cy="303.3" r="4" fill="black"/>
  <circle cx="332.2" cy="303.3" r="4" fill="black"/>
  <circle cx="303.0" cy="332.9" r="4" fill="black"/>
  <circle cx="251.5" cy="367.4" r="4" fill="black"/>
  <circle cx="263.4" cy="400.0" r="4" fill="black"/>
  <circle cx="298.8" cy="435.9" r="4" fill="black"/>
  <circle cx="332.6" cy="448.5" r="4" fill="black"/>
  <circle cx="365.9" cy="448.7" r="4" fill="black"/>
  <circle cx="400.0" cy="436.6" r="4" fill="black"/>
  <circle cx="420.7" cy="420.7" r="4" fill="black"/>
  <circle cx="436.6" cy="400.0" r="4" fill="black"/>
  <circle cx="447.9" cy="370.2" r="4" fill="black"/>
  <circle cx="448.7" cy="334.1" r="4" fill="black"/>
  <circle cx="436.6" cy="300.0" r="4" fill="black"/>
  <circle cx="421.7" cy="280.3" r="4" fill="black"/>
  <circle cx="400.0" cy="263.4" r="4" fill="black"/>
  <circle cx="367.4" cy="251.5" r="4" fill="black"/>
  <circle cx="350.0" cy="250.0" r="4" fill="black"/>
  <circle cx="329.8" cy="252.1" r="4" fill="black"/>
  <circle cx="300.0" cy="263.4" r="4" fill="black"/>
  <circle cx="263.4" cy="300.0" r="4" fill="black"/>
  <circle cx="251.5" cy="332.6" r="4" fill="black"/>
  <circle cx="220.1" cy="425.0" r="4" fill="black"/>
  <circle cx="242.4" cy="454.5" r="4" fill="black"/>
  <circle cx="275.0" cy="479.9" r="4" fill="black"/>
  <circle cx="324.0" cy="497.7" r="4" fill="black"/>
  <circle cx="376.0" cy="497.7" r="4" fill="black"/>
  <circle cx="425.0" cy="479.9" r="4" fill="black"/>
  <circle cx="456.1" cy="456.1" r="4" fill="black"/>
  <circle cx="479.9" cy="425.0" r="4" fill="black"/>
  <circle cx="497.3" cy="378.2" r="4" fill="black"/>
  <circle cx="497.7" cy="324.0" r="4" fill="black"/>
  <circle cx="479.9" cy="275.0" r="4" fill="black"/>
  <circle cx="456.1" cy="243.9" r="4" fill="black"/>
  <circle cx="426.9" cy="221.2" r="4" fill="black"/>
  <circle cx="376.0" cy="202.3" r="4" fill="black"/>
  <circle cx="324.0" cy="202.3" r="4" fill="black"/>
  <circle cx="275.0" cy="220.1" r="4" fill="black"/>
  <circle cx="243.9" cy="243.9" r="4" fill="black"/>
  <circle cx="221.2" cy="273.1" r="4" fill="black"/>
  <circle cx="175.4" cy="447.5" r="4" fill="black"/>
  <circle cx="247.5" cy="521.7" r="4" fill="black"/>
  <circle cx="315.3" cy="547.0" r="4" fill="black"/>
  <circle cx="381.9" cy="547.4" r="4" fill="black"/>
  <circle cx="450.0" cy="523.2" r="4" fill="black"/>
  <circle cx="523.2" cy="450.0" r="4" fill="black"/>
  <circle cx="537.9" cy="418.4" r="4" fill="black"/>
  <circle cx="546.4" cy="387.6" r="4" fill="black"/>
  <circle cx="547.4" cy="318.1" r="4" fill="black"/>
  <circle cx="538.9" cy="284.3" r="4" fill="black"/>
  <circle cx="523.2" cy="250.0" r="4" fill="black"/>
  <circle cx="450.0" cy="176.8" r="4" fill="black"/>
  <circle cx="384.7" cy="153.0" r="4" fill="black"/>
  <circle cx="315.3" cy="153.0" r="4" fill="black"/>
  <circle cx="250.0" cy="176.8" r="4" fill="black"/>
  <circle cx="178.3" cy="247.5" r="4" fill="black"/>
  <circle cx="108.5" cy="414.7" r="4" fill="black"/>
  <circle cx="170.7" cy="524.2" r="4" fill="black"/>
  <circle cx="306.6" cy="596.2" r="4" fill="black"/>
  <circle cx="350.0" cy="600.0" r="4" fill="black"/>
  <circle cx="389.8" cy="596.8" r="4" fill="black"/>
  <circle cx="526.8" cy="526.8" r="4" fill="black"/>
  <circle cx="590.5" cy="418.2" r="4" fill="black"/>
  <circle cx="598.7" cy="375.4" r="4" fill="black"/>
  <circle cx="599.3" cy="331.8" r="4" fill="black"/>
  <circle cx="591.5" cy="285.3" r="4" fill="black"/>
  <circle cx="526.8" cy="173.2" r="4" fill="black"/>
  <circle cx="393.4" cy="103.8" r="4" fill="black"/>
  <circle cx="306.6" cy="103.8" r="4" fill="black"/>
  <circle cx="173.2" cy="173.2" r="4" fill="black"/>
  <circle cx="108.5" cy="285.3" r="4" fill="black"/>
  <text x="350.0" y="32" font-family="Arial" font-size="17" font-weight="bold" text-anchor="middle">Humphrey Central 80-Point Screening</text>
  <text x="350.0" y="685" font-family="Arial" font-size="10" fill="#666" text-anchor="middle">OD · 81 pts · 15°/9 = 1.667° meridian grid (9 divisions per 15° sector)</text>
</svg>