<svg xmlns="http://www.w3.org/2000/svg" width="600" height="600" viewBox="0 0 600 600">
  <rect width="600" height="600" fill="white"/>
  <g stroke="#999" stroke-width="0.4" fill="none">
    <circle cx="300.0" cy="300.0" r="43.33333333333333"/>
    <circle cx="300.0" cy="300.0" r="86.66666666666666"/>
    <circle cx="300.0" cy="300.0" r="130.0"/>
    <circle cx="300.0" cy="300.0" r="173.33333333333331"/>
    <circle cx="300.0" cy="300.0" r="216.66666666666666"/>
    <circle cx="300.0" cy="300.0" r="260.0"/>
  </g>
  <g stroke="#d8d8d8" stroke-width="0.3" fill="none">
    <line x1="300.0" y1="300.0" x2="559.9" y2="292.4"/>
    <line x1="300.0" y1="300.0" x2="559.6" y2="284.9"/>
    <line x1="300.0" y1="300.0" x2="559.0" y2="277.3"/>
    <line x1="300.0" y1="300.0" x2="558.2" y2="269.8"/>
    <line x1="300.0" y1="300.0" x2="557.3" y2="262.3"/>
    <line x1="300.0" y1="300.0" x2="556.1" y2="254.9"/>
    <line x1="300.0" y1="300.0" x2="554.6" y2="247.4"/>
    <line x1="300.0" y1="300.0" x2="553.0" y2="240.0"/>
    <line x1="300.0" y1="300.0" x2="549.1" y2="225.4"/>
    <line x1="300.0" y1="300.0" x2="546.8" y2="218.2"/>
    <line x1="300.0" y1="300.0" x2="544.3" y2="211.1"/>
    <line x1="300.0" y1="300.0" x2="541.6" y2="204.0"/>
    <line x1="300.0" y1="300.0" x2="538.7" y2="197.0"/>
    <line x1="300.0" y1="300.0" x2="535.6" y2="190.1"/>
    <line x1="300.0" y1="300.0" x2="532.3" y2="183.3"/>
    <line x1="300.0" y1="300.0" x2="528.9" y2="176.6"/>
    <line x1="300.0" y1="300.0" x2="521.3" y2="163.5"/>
    <line x1="300.0" y1="300.0" x2="517.2" y2="157.1"/>
    <line x1="300.0" y1="300.0" x2="513.0" y2="150.9"/>
    <line x1="300.0" y1="300.0" x2="508.6" y2="144.7"/>
    <line x1="300.0" y1="300.0" x2="503.9" y2="138.7"/>
    <line x1="300.0" y1="300.0" x2="499.2" y2="132.9"/>
    <line x1="300.0" y1="300.0" x2="494.2" y2="127.2"/>
    <line x1="300.0" y1="300.0" x2="489.1" y2="121.6"/>
    <line x1="300.0" y1="300.0" x2="478.4" y2="110.9"/>
    <line x1="300.0" y1="300.0" x2="472.8" y2="105.8"/>
    <line x1="300.0" y1="300.0" x2="467.1" y2="100.8"/>
    <line x1="300.0" y1="300.0" x2="461.3" y2="96.1"/>
    <line x1="300.0" y1="300.0" x2="455.3" y2="91.4"/>
    <line x1="300.0" y1="300.0" x2="449.1" y2="87.0"/>
    <line x1="300.0" y1="300.0" x2="442.9" y2="82.8"/>
    <line x1="300.0" y1="300.0" x2="436.5" y2="78.7"/>
    <line x1="300.0" y1="300.0" x2="423.4" y2="71.1"/>
    <line x1="300.0" y1="300.0" x2="416.7" y2="67.7"/>
    <line x1="300.0" y1="300.0" x2="409.9" y2="64.4"/>
    <line x1="300.0" y1="300.0" x2="403.0" y2="61.3"/>
    <line x1="300.0" y1="300.0" x2="396.0" y2="58.4"/>
    <line x1="300.0" y1="300.0" x2="388.9" y2="55.7"/>
    <line x1="300.0" y1="300.0" x2="381.8" y2="53.2"/>
    <line x1="300.0" y1="300.0" x2="374.6" y2="50.9"/>
    <line x1="300.0" y1="300.0" x2="360.0" y2="47.0"/>
    <line x1="300.0" y1="300.0" x2="352.6" y2="45.4"/>
    <line x1="300.0" y1="300.0" x2="345.1" y2="43.9"/>
    <line x1="300.0" y1="300.0" x2="337.7" y2="42.7"/>
    <line x1="300.0" y1="300.0" x2="330.2" y2="41.8"/>
    <line x1="300.0" y1="300.0" x2="322.7" y2="41.0"/>
    <line x1="300.0" y1="300.0" x2="315.1" y2="40.4"/>
    <line x1="300.0" y1="300.0" x2="307.6" y2="40.1"/>
    <line x1="300.0" y1="300.0" x2="292.4" y2="40.1"/>
    <line x1="300.0" y1="300.0" x2="284.9" y2="40.4"/>
    <line x1="300.0" y1="300.0" x2="277.3" y2="41.0"/>
    <line x1="300.0" y1="300.0" x2="269.8" y2="41.8"/>
    <line x1="300.0" y1="300.0" x2="262.3" y2="42.7"/>
    <line x1="300.0" y1="300.0" x2="254.9" y2="43.9"/>
    <line x1="300.0" y1="300.0" x2="247.4" y2="45.4"/>
    <line x1="300.0" y1="300.0" x2="240.0" y2="47.0"/>
    <line x1="300.0" y1="300.0" x2="225.4" y2="50.9"/>
    <line x1="300.0" y1="300.0" x2="218.2" y2="53.2"/>
    <line x1="300.0" y1="300.0" x2="211.1" y2="55.7"/>
    <line x1="300.0" y1="300.0" x2="204.0" y2="58.4"/>
    <line x1="300.0" y1="300.0" x2="197.0" y2="61.3"/>
    <line x1="300.0" y1="300.0" x2="190.1" y2="64.4"/>
    <line x1="300.0" y1="300.0" x2="183.3" y2="67.7"/>
    <line x1="300.0" y1="300.0" x2="176.6" y2="71.1"/>
    <line x1="300.0" y1="300.0" x2="163.5" y2="78.7"/>
    <line x1="300.0" y1="300.0" x2="157.1" y2="82.8"/>
    <line x1="300.0" y1="300.0" x2="150.9" y2="87.0"/>
    <line x1="300.0" y1="300.0" x2="144.7" y2="91.4"/>
    <line x1="300.0" y1="300.0" x2="138.7" y2="96.1"/>
    <line x1="300.0" y1="300.0" x2="132.9" y2="100.8"/>
    <line x1="300.0" y1="300.0" x2="127.2" y2="105.8"/>
    <line x1="300.0" y1="300.0" x2="121.6" y2="110.9"/>
    <line x1="300.0" y1="300.0" x2="110.9" y2="121.6"/>
    <line x1="300.0" y1="300.0" x2="105.8" y2="127.2"/>
    <line x1="300.0" y1="300.0" x2="100.8" y2="132.9"/>
    <line x1="300.0" y1="300.0" x2="96.1" y2="138.7"/>
    <line x1="300.0" y1="300.0" x2="91.4" y2="144.7"/>
    <line x1="300.0" y1="300.0" x2="87.0" y2="150.9"/>
    <line x1="300.0" y1="300.0" x2="82.8" y2="157.1"/>
    <line x1="300.0" y1="300.0" x2="78.7" y2="163.5"/>
    <line x1="300.0" y1="300.0" x2="71.1" y2="176.6"/>
    <line x1="300.0" y1="300.0" x2="67.7" y2="183.3"/>
    <line x1="300.0" y1="300.0" x2="64.4" y2="190.1"/>
    <line x1="300.0" y1="300.0" x2="61.3" y2="197.0"/>
    <line x1="300.0" y1="300.0" x2="58.4" y2="204.0"/>
    <line x1="300.0" y1="300.0" x2="55.7" y2="211.1"/>
    <line x1="300.0" y1="300.0" x2="53.2" y2="218.2"/>
    <line x1="300.0" y1="300.0" x2="50.9" y2="225.4"/>
    <line x1="300.0" y1="300.0" x2="47.0" y2="240.0"/>
    <line x1="300.0" y1="300.0" x2="45.4" y2="247.4"/>
    <line x1="300.0" y1="300.0" x2="43.9" y2="254.9"/>
    <line x1="300.0" y1="300.0" x2="42.7" y2="262.3"/>
    <line x1="300.0" y1="300.0" x2="41.8" y2="269.8"/>
    <line x1="300.0" y1="300.0" x2="41.0" y2="277.3"/>
    <line x1="300.0" y1="300.0" x2="40.4" y2="284.9"/>
    <line x1="300.0" y1="300.0" x2="40.1" y2="292.4"/>
    <line x1="300.0" y1="300.0" x2="40.1" y2="307.6"/>
    <line x1="300.0" y1="300.0" x2="40.4" y2="315.1"/>
    <line x1="300.0" y1="300.0" x2="41.0" y2="322.7"/>
    <line x1="300.0" y1="300.0" x2="41.8" y2="330.2"/>
    <line x1="300.0" y1="300.0" x2="42.7" y2="337.7"/>
    <line x1="300.0" y1="300.0" x2="43.9" y2="345.1"/>
    <line x1="300.0" y1="300.0" x2="45.4" y2="352.6"/>
    <line x1="300.0" y1="300.0" x2="47.0" y2="360.0"/>
    <line x1="300.0" y1="300.0" x2="50.9" y2="374.6"/>
    <line x1="300.0" y1="300.0" x2="53.2" y2="381.8"/>
    <line x1="300.0" y1="300.0" x2="55.7" y2="388.9"/>
    <line x1="300.0" y1="300.0" x2="58.4" y2="396.0"/>
    <line x1="300.0" y1="300.0" x2="61.3" y2="403.0"/>
    <line x1="300.0" y1="300.0" x2="64.4" y2="409.9"/>
    <line x1="300.0" y1="300.0" x2="67.7" y2="416.7"/>
    <line x1="300.0" y1="300.0" x2="71.1" y2="423.4"/>
    <line x1="300.0" y1="300.0" x2="78.7" y2="436.5"/>
    <line x1="300.0" y1="300.0" x2="82.8" y2="442.9"/>
    <line x1="300.0" y1="300.0" x2="87.0" y2="449.1"/>
    <line x1="300.0" y1="300.0" x2="91.4" y2="455.3"/>
    <line x1="300.0" y1="300.0" x2="96.1" y2="461.3"/>
    <line x1="300.0" y1="300.0" x2="100.8" y2="467.1"/>
    <line x1="300.0" y1="300.0" x2="105.8" y2="472.8"/>
    <line x1="300.0" y1="300.0" x2="110.9" y2="478.4"/>
    <line x1="300.0" y1="300.0" x2="121.6" y2="489.1"/>
    <line x1="300.0" y1="300.0" x2="127.2" y2="494.2"/>
    <line x1="300.0" y1="300.0" x2="132.9" y2="499.2"/>
    <line x1="300.0" y1="300.0" x2="138.7" y2="503.9"/>
    <line x1="300.0" y1="300.0" x2="144.7" y2="508.6"/>
    <line x1="300.0" y1="300.0" x2="150.9" y2="513.0"/>
    <line x1="300.0" y1="300.0" x2="157.1" y2="517.2"/>
    <line x1="300.0" y1="300.0" x2="163.5" y2="521.3"/>
    <line x1="300.0" y1="300.0" x2="176.6" y2="528.9"/>
    <line x1="300.0" y1="300.0" x2="183.3" y2="532.3"/>
    <line x1="300.0" y1="300.0" x2="190.1" y2="535.6"/>
    <line x1="300.0" y1="300.0" x2="197.0" y2="538.7"/>
    <line x1="300.0" y1="300.0" x2="204.0" y2="541.6"/>
    <line x1="300.0" y1="300.0" x2="211.1" y2="544.3"/>
    <line x1="300.0" y1="300.0" x2="218.2" y2="546.8"/>
    <line x1="300.0" y1="300.0" x2="225.4" y2="549.1"/>
    <line x1="300.0" y1="300.0" x2="240.0" y2="553.0"/>
    <line x1="300.0" y1="300.0" x2="247.4" y2="554.6"/>
    <line x1="300.0" y1="300.0" x2="254.9" y2="556.1"/>
    <line x1="300.0" y1="300.0" x2="262.3" y2="557.3"/>
    <line x1="300.0" y1="300.0" x2="269.8" y2="558.2"/>
    <line x1="300.0" y1="300.0" x2="277.3" y2="559.0"/>
    <line x1="300.0" y1="300.0" x2="284.9" y2="559.6"/>
    <line x1="300.0" y1="300.0" x2="292.4" y2="559.9"/>
    <line x1="300.0" y1="300.0" x2="307.6" y2="559.9"/>
    <line x1="300.0" y1="300.0" x2="315.1" y2="559.6"/>
    <line x1="300.0" y1="300.0" x2="322.7" y2="559.0"/>
    <line x1="300.0" y1="300.0" x2="330.2" y2="558.2"/>
    <line x1="300.0" y1="300.0" x2="337.7" y2="557.3"/>
    <line x1="300.0" y1="300.0" x2="345.1" y2="556.1"/>
    <line x1="300.0" y1="300.0" x2="352.6" y2="554.6"/>
    <line x1="300.0" y1="300.0" x2="360.0" y2="553.0"/>
    <line x1="300.0" y1="300.0" x2="374.6" y2="549.1"/>
    <line x1="300.0" y1="300.0" x2="381.8" y2="546.8"/>
    <line x1="300.0" y1="300.0" x2="388.9" y2="544.3"/>
    <line x1="300.0" y1="300.0" x2="396.0" y2="541.6"/>
    <line x1="300.0" y1="300.0" x2="403.0" y2="538.7"/>
    <line x1="300.0" y1="300.0" x2="409.9" y2="535.6"/>
    <line x1="300.0" y1="300.0" x2="416.7" y2="532.3"/>
    <line x1="300.0" y1="300.0" x2="423.4" y2="528.9"/>
    <line x1="300.0" y1="300.0" x2="436.5" y2="521.3"/>
    <line x1="300.0" y1="300.0" x2="442.9" y2="517.2"/>
    <line x1="300.0" y1="300.0" x2="449.1" y2="513.0"/>
    <line x1="300.0" y1="300.0" x2="455.3" y2="508.6"/>
    <line x1="300.0" y1="300.0" x2="461.3" y2="503.9"/>
    <line x1="300.0" y1="300.0" x2="467.1" y2="499.2"/>
    <line x1="300.0" y1="300.0" x2="472.8" y2="494.2"/>
    <line x1="300.0" y1="300.0" x2="478.4" y2="489.1"/>
    <line x1="300.0" y1="300.0" x2="489.1" y2="478.4"/>
    <line x1="300.0" y1="300.0" x2="494.2" y2="472.8"/>
    <line x1="300.0" y1="300.0" x2="499.2" y2="467.1"/>
    <line x1="300.0" y1="300.0" x2="503.9" y2="461.3"/>
    <line x1="300.0" y1="300.0" x2="508.6" y2="455.3"/>
    <line x1="300.0" y1="300.0" x2="513.0" y2="449.1"/>
    <line x1="300.0" y1="300.0" x2="517.2" y2="442.9"/>
    <line x1="300.0" y1="300.0" x2="521.3" y2="436.5"/>
    <line x1="300.0" y1="300.0" x2="528.9" y2="423.4"/>
    <line x1="300.0" y1="300.0" x2="532.3" y2="416.7"/>
    <line x1="300.0" y1="300.0" x2="535.6" y2="409.9"/>
    <line x1="300.0" y1="300.0" x2="538.7" y2="403.0"/>
    <line x1="300.0" y1="300.0" x2="541.6" y2="396.0"/>
    <line x1="300.0" y1="300.0" x2="544.3" y2="388.9"/>
    <line x1="300.0" y1="300.0" x2="546.8" y2="381.8"/>
    <line x1="300.0" y1="300.0" x2="549.1" y2="374.6"/>
    <line x1="300.0" y1="300.0" x2="553.0" y2="360.0"/>
    <line x1="300.0" y1="300.0" x2="554.6" y2="352.6"/>
    <line x1="300.0" y1="300.0" x2="556.1" y2="345.1"/>
    <line x1="300.0" y1="300.0" x2="557.3" y2="337.7"/>
    <line x1="300.0" y1="300.0" x2="558.2" y2="330.2"/>
    <line x1="300.0" y1="300.0" x2="559.0" y2="322.7"/>
    <line x1="300.0" y1="300.0" x2="559.6" y2="315.1"/>
    <line x1="300.0" y1="300.0" x2="559.9" y2="307.6"/>
  </g>
  <g stroke="#666" stroke-width="0.5" fill="none">
    <line x1="300.0" y1="300.0" x2="551.1" y2="232.7"/>
    <line x1="300.0" y1="300.0" x2="525.2" y2="170.0"/>
    <line x1="300.0" y1="300.0" x2="483.8" y2="116.2"/>
    <line x1="300.0" y1="300.0" x2="430.0" y2="74.8"/>
    <line x1="300.0" y1="300.0" x2="367.3" y2="48.9"/>
    <line x1="300.0" y1="300.0" x2="232.7" y2="48.9"/>
    <line x1="300.0" y1="300.0" x2="170.0" y2="74.8"/>
    <line x1="300.0" y1="300.0" x2="116.2" y2="116.2"/>
    <line x1="300.0" y1="300.0" x2="74.8" y2="170.0"/>
    <line x1="300.0" y1="300.0" x2="48.9" y2="232.7"/>
    <line x1="300.0" y1="300.0" x2="48.9" y2="367.3"/>
    <line x1="300.0" y1="300.0" x2="74.8" y2="430.0"/>
    <line x1="300.0" y1="300.0" x2="116.2" y2="483.8"/>
    <line x1="300.0" y1="300.0" x2="170.0" y2="525.2"/>
    <line x1="300.0" y1="300.0" x2="232.7" y2="551.1"/>
    <line x1="300.0" y1="300.0" x2="367.3" y2="551.1"/>
    <line x1="300.0" y1="300.0" x2="430.0" y2="525.2"/>
    <line x1="300.0" y1="300.0" x2="483.8" y2="483.8"/>
    <line x1="300.0" y1="300.0" x2="525.2" y2="430.0"/>
    <line x1="300.0" y1="300.0" x2="551.1" y2="367.3"/>
  </g>
  <line x1="40.0" y1="300.0" x2="560.0" y2="300.0" stroke="black" stroke-width="1.3"/>
  <line x1="300.0" y1="40.0" x2="300.0" y2="560.0" stroke="black" stroke-width="1.3"/>
  <text x="304.0" y="397.66666666666663" font-family="Arial" font-size="10" fill="#666">10°</text>
  <text x="304.0" y="484.3333333333333" font-family="Arial" font-size="10" fill="#666">20°</text>
  <text x="304.0" y="571.0" font-family="Arial" font-size="10" fill="#666">30°</text>
  <circle cx="298.9" cy="326.0" r="3.5" fill="black"/>
  <circle cx="319.7" cy="317.0" r="3.5" fill="black"/>
  <circle cx="277.0" cy="319.8" r="3.5" fill="black"/>
  <circle cx="323.2" cy="280.5" r="3.5" fill="black"/>
  <circle cx="276.5" cy="280.8" r="3.5" fill="black"/>
  <circle cx="259.3" cy="314.8" r="3.5" fill="black"/>
  <circle cx="285.2" cy="340.7" r="3.5" fill="black"/>
  <circle cx="314.8" cy="340.7" r="3.5" fill="black"/>
  <circle cx="340.3" cy="316.0" r="3.5" fill="black"/>
  <circle cx="340.7" cy="285.2" r="3.5" fill="black"/>
  <circle cx="315.4" cy="259.5" r="3.5" fill="black"/>
  <circle cx="284.6" cy="259.5" r="3.5" fill="black"/>
  <circle cx="259.3" cy="285.2" r="3.5" fill="black"/>
  <circle cx="214.6" cy="315.0" r="3.5" fill="black"/>
  <circle cx="224.9" cy="343.3" r="3.5" fill="black"/>
  <circle cx="255.6" cy="374.4" r="3.5" fill="black"/>
  <circle cx="285.0" cy="385.4" r="3.5" fill="black"/>
  <circle cx="313.8" cy="385.6" r="3.5" fill="black"/>
  <circle cx="343.3" cy="375.1" r="3.5" fill="black"/>
  <circle cx="361.3" cy="361.3" r="3.5" fill="black"/>
  <circle cx="375.1" cy="343.3" r="3.5" fill="black"/>
  <circle cx="384.9" cy="317.5" r="3.5" fill="black"/>
  <circle cx="385.6" cy="286.2" r="3.5" fill="black"/>
  <circle cx="375.1" cy="256.7" r="3.5" fill="black"/>
  <circle cx="362.2" cy="239.6" r="3.5" fill="black"/>
  <circle cx="343.3" cy="224.9" r="3.5" fill="black"/>
  <circle cx="315.0" cy="214.6" r="3.5" fill="black"/>
  <circle cx="300.0" cy="213.3" r="3.5" fill="black"/>
  <circle cx="282.5" cy="215.1" r="3.5" fill="black"/>
  <circle cx="256.7" cy="224.9" r="3.5" fill="black"/>
  <circle cx="224.9" cy="256.7" r="3.5" fill="black"/>
  <circle cx="214.6" cy="285.0" r="3.5" fill="black"/>
  <circle cx="187.4" cy="365.0" r="3.5" fill="black"/>
  <circle cx="206.8" cy="390.6" r="3.5" fill="black"/>
  <circle cx="235.0" cy="412.6" r="3.5" fill="black"/>
  <circle cx="277.4" cy="428.0" r="3.5" fill="black"/>
  <circle cx="322.6" cy="428.0" r="3.5" fill="black"/>
  <circle cx="365.0" cy="412.6" r="3.5" fill="black"/>
  <circle cx="391.9" cy="391.9" r="3.5" fill="black"/>
  <circle cx="412.6" cy="365.0" r="3.5" fill="black"/>
  <circle cx="427.7" cy="324.4" r="3.5" fill="black"/>
  <circle cx="428.0" cy="277.4" r="3.5" fill="black"/>
  <circle cx="412.6" cy="235.0" r="3.5" fill="black"/>
  <circle cx="391.9" cy="208.1" r="3.5" fill="black"/>
  <circle cx="366.6" cy="188.4" r="3.5" fill="black"/>
  <circle cx="322.6" cy="172.0" r="3.5" fill="black"/>
  <circle cx="277.4" cy="172.0" r="3.5" fill="black"/>
  <circle cx="235.0" cy="187.4" r="3.5" fill="black"/>
  <circle cx="208.1" cy="208.1" r="3.5" fill="black"/>
  <circle cx="188.4" cy="233.4" r="3.5" fill="black"/>
  <circle cx="148.6" cy="384.5" r="3.5" fill="black"/>
  <circle cx="211.2" cy="448.8" r="3.5" fill="black"/>
  <circle cx="269.9" cy="470.7" r="3.5" fill="black"/>
  <circle cx="327.6" cy="471.1" r="3.5" fill="black"/>
  <circle cx="386.7" cy="450.1" r="3.5" fill="black"/>
  <circle cx="450.1" cy="386.7" r="3.5" fill="black"/>
  <circle cx="462.9" cy="359.3" r="3.5" fill="black"/>
  <circle cx="470.2" cy="332.6" r="3.5" fill="black"/>
  <circle cx="471.1" cy="272.4" r="3.5" fill="black"/>
  <circle cx="463.7" cy="243.1" r="3.5" fill="black"/>
  <circle cx="450.1" cy="213.3" r="3.5" fill="black"/>
  <circle cx="386.7" cy="149.9" r="3.5" fill="black"/>
  <circle cx="330.1" cy="129.3" r="3.5" fill="black"/>
  <circle cx="269.9" cy="129.3" r="3.5" fill="black"/>
  <circle cx="213.3" cy="149.9" r="3.5" fill="black"/>
  <circle cx="151.2" cy="211.2" r="3.5" fill="black"/>
  <circle cx="90.7" cy="356.1" r="3.5" fill="black"/>
  <circle cx="144.6" cy="451.0" r="3.5" fill="black"/>
  <circle cx="262.4" cy="513.4" r="3.5" fill="black"/>
  <circle cx="300.0" cy="516.7" r="3.5" fill="black"/>
  <circle cx="334.5" cy="513.9" r="3.5" fill="black"/>
  <circle cx="453.2" cy="453.2" r="3.5" fill="black"/>
  <circle cx="508.4" cy="359.1" r="3.5" fill="black"/>
  <circle cx="515.5" cy="322.0" r="3.5" fill="black"/>
  <circle cx="516.1" cy="284.2" r="3.5" fill="black"/>
  <circle cx="509.3" cy="243.9" r="3.5" fill="black"/>
  <circle cx="453.2" cy="146.8" r="3.5" fill="black"/>
  <circle cx="337.6" cy="86.6" r="3.5" fill="black"/>
  <circle cx="262.4" cy="86.6" r="3.5" fill="black"/>
  <circle cx="146.8" cy="146.8" r="3.5" fill="black"/>
  <circle cx="90.7" cy="243.9" r="3.5" fill="black"/>
  <text x="300.0" y="28" font-family="Arial" font-size="16" font-weight="bold" text-anchor="middle">Humphrey Central 80-Point Screening</text>
  <text x="300.0" y="586" font-family="Arial" font-size="10" fill="#666" text-anchor="middle">OD · 81 pts · 216 meridians at 15°/9 = 1.667° (light gray) + 15° majors (dark)</text>
</svg>