<svg xmlns="http://www.w3.org/2000/svg" width="600" height="600" viewBox="0 0 600 600">
  <rect width="600" height="600" fill="white"/>
  <g stroke="#bbb" stroke-width="0.4" fill="none">
    <circle cx="300.0" cy="300.0" r="43.33333333333333"/>
    <circle cx="300.0" cy="300.0" r="86.66666666666666"/>
    <circle cx="300.0" cy="300.0" r="130.0"/>
    <circle cx="300.0" cy="300.0" r="173.33333333333331"/>
    <circle cx="300.0" cy="300.0" r="216.66666666666666"/>
    <circle cx="300.0" cy="300.0" r="260.0"/>
  </g>
  <g stroke="#e0e0e0" stroke-width="0.3" fill="none">
    <line x1="300.0" y1="300.0" x2="559.0" y2="277.3"/>
    <line x1="300.0" y1="300.0" x2="556.1" y2="254.9"/>
    <line x1="300.0" y1="300.0" x2="544.3" y2="211.1"/>
    <line x1="300.0" y1="300.0" x2="535.6" y2="190.1"/>
    <line x1="300.0" y1="300.0" x2="513.0" y2="150.9"/>
    <line x1="300.0" y1="300.0" x2="499.2" y2="132.9"/>
    <line x1="300.0" y1="300.0" x2="467.1" y2="100.8"/>
    <line x1="300.0" y1="300.0" x2="449.1" y2="87.0"/>
    <line x1="300.0" y1="300.0" x2="409.9" y2="64.4"/>
    <line x1="300.0" y1="300.0" x2="388.9" y2="55.7"/>
    <line x1="300.0" y1="300.0" x2="345.1" y2="43.9"/>
    <line x1="300.0" y1="300.0" x2="322.7" y2="41.0"/>
    <line x1="300.0" y1="300.0" x2="277.3" y2="41.0"/>
    <line x1="300.0" y1="300.0" x2="254.9" y2="43.9"/>
    <line x1="300.0" y1="300.0" x2="211.1" y2="55.7"/>
    <line x1="300.0" y1="300.0" x2="190.1" y2="64.4"/>
    <line x1="300.0" y1="300.0" x2="150.9" y2="87.0"/>
    <line x1="300.0" y1="300.0" x2="132.9" y2="100.8"/>
    <line x1="300.0" y1="300.0" x2="100.8" y2="132.9"/>
    <line x1="300.0" y1="300.0" x2="87.0" y2="150.9"/>
    <line x1="300.0" y1="300.0" x2="64.4" y2="190.1"/>
    <line x1="300.0" y1="300.0" x2="55.7" y2="211.1"/>
    <line x1="300.0" y1="300.0" x2="43.9" y2="254.9"/>
    <line x1="300.0" y1="300.0" x2="41.0" y2="277.3"/>
    <line x1="300.0" y1="300.0" x2="41.0" y2="322.7"/>
    <line x1="300.0" y1="300.0" x2="43.9" y2="345.1"/>
    <line x1="300.0" y1="300.0" x2="55.7" y2="388.9"/>
    <line x1="300.0" y1="300.0" x2="64.4" y2="409.9"/>
    <line x1="300.0" y1="300.0" x2="87.0" y2="449.1"/>
    <line x1="300.0" y1="300.0" x2="100.8" y2="467.1"/>
    <line x1="300.0" y1="300.0" x2="132.9" y2="499.2"/>
    <line x1="300.0" y1="300.0" x2="150.9" y2="513.0"/>
    <line x1="300.0" y1="300.0" x2="190.1" y2="535.6"/>
    <line x1="300.0" y1="300.0" x2="211.1" y2="544.3"/>
    <line x1="300.0" y1="300.0" x2="254.9" y2="556.1"/>
    <line x1="300.0" y1="300.0" x2="277.3" y2="559.0"/>
    <line x1="300.0" y1="300.0" x2="322.7" y2="559.0"/>
    <line x1="300.0" y1="300.0" x2="345.1" y2="556.1"/>
    <line x1="300.0" y1="300.0" x2="388.9" y2="544.3"/>
    <line x1="300.0" y1="300.0" x2="409.9" y2="535.6"/>
    <line x1="300.0" y1="300.0" x2="449.1" y2="513.0"/>
    <line x1="300.0" y1="300.0" x2="467.1" y2="499.2"/>
    <line x1="300.0" y1="300.0" x2="499.2" y2="467.1"/>
    <line x1="300.0" y1="300.0" x2="513.0" y2="449.1"/>
    <line x1="300.0" y1="300.0" x2="535.6" y2="409.9"/>
    <line x1="300.0" y1="300.0" x2="544.3" y2="388.9"/>
    <line x1="300.0" y1="300.0" x2="556.1" y2="345.1"/>
    <line x1="300.0" y1="300.0" x2="559.0" y2="322.7"/>
  </g>
  <g stroke="#aaa" stroke-width="0.5" fill="none">
    <line x1="300.0" y1="300.0" x2="551.1" y2="232.7"/>
    <line x1="300.0" y1="300.0" x2="525.2" y2="170.0"/>
    <line x1="300.0" y1="300.0" x2="483.8" y2="116.2"/>
    <line x1="300.0" y1="300.0" x2="430.0" y2="74.8"/>
    <line x1="300.0" y1="300.0" x2="367.3" y2="48.9"/>
    <line x1="300.0" y1="300.0" x2="232.7" y2="48.9"/>
    <line x1="300.0" y1="300.0" x2="170.0" y2="74.8"/>
    <line x1="300.0" y1="300.0" x2="116.2" y2="116.2"/>
    <line x1="300.0" y1="300.0" x2="74.8" y2="170.0"/>
    <line x1="300.0" y1="300.0" x2="48.9" y2="232.7"/>
    <line x1="300.0" y1="300.0" x2="48.9" y2="367.3"/>
    <line x1="300.0" y1="300.0" x2="74.8" y2="430.0"/>
    <line x1="300.0" y1="300.0" x2="116.2" y2="483.8"/>
    <line x1="300.0" y1="300.0" x2="170.0" y2="525.2"/>
    <line x1="300.0" y1="300.0" x2="232.7" y2="551.1"/>
    <line x1="300.0" y1="300.0" x2="367.3" y2="551.1"/>
    <line x1="300.0" y1="300.0" x2="430.0" y2="525.2"/>
    <line x1="300.0" y1="300.0" x2="483.8" y2="483.8"/>
    <line x1="300.0" y1="300.0" x2="525.2" y2="430.0"/>
    <line x1="300.0" y1="300.0" x2="551.1" y2="367.3"/>
  </g>
  <line x1="40.0" y1="300.0" x2="560.0" y2="300.0" stroke="black" stroke-width="1.2"/>
  <line x1="300.0" y1="40.0" x2="300.0" y2="560.0" stroke="black" stroke-width="1.2"/>
  <text x="303.0" y="396.66666666666663" font-family="Arial" font-size="10" fill="#666">20°</text>
  <text x="303.0" y="483.3333333333333" font-family="Arial" font-size="10" fill="#666">40°</text>
  <text x="303.0" y="570.0" font-family="Arial" font-size="10" fill="#666">60°</text>
  <circle cx="278.3" cy="165.7" r="3.5" fill="black"/>
  <circle cx="321.7" cy="165.7" r="3.5" fill="black"/>
  <circle cx="204.7" cy="204.7" r="3.5" fill="black"/>
  <circle cx="282.7" cy="204.7" r="3.5" fill="black"/>
  <circle cx="317.3" cy="204.7" r="3.5" fill="black"/>
  <circle cx="391.0" cy="209.0" r="3.5" fill="black"/>
  <circle cx="230.7" cy="230.7" r="3.5" fill="black"/>
  <circle cx="369.3" cy="230.7" r="3.5" fill="black"/>
  <circle cx="287.0" cy="230.7" r="3.5" fill="black"/>
  <circle cx="313.0" cy="230.7" r="3.5" fill="black"/>
  <circle cx="269.7" cy="243.7" r="3.5" fill="black"/>
  <circle cx="334.7" cy="243.7" r="3.5" fill="black"/>
  <circle cx="113.7" cy="248.0" r="3.5" fill="black"/>
  <circle cx="291.3" cy="248.0" r="3.5" fill="black"/>
  <circle cx="308.7" cy="248.0" r="3.5" fill="black"/>
  <circle cx="274.0" cy="256.7" r="3.5" fill="black"/>
  <circle cx="326.0" cy="256.7" r="3.5" fill="black"/>
  <circle cx="265.3" cy="265.3" r="3.5" fill="black"/>
  <circle cx="334.7" cy="265.3" r="3.5" fill="black"/>
  <circle cx="174.3" cy="265.3" r="3.5" fill="black"/>
  <circle cx="291.3" cy="265.3" r="3.5" fill="black"/>
  <circle cx="243.7" cy="269.7" r="3.5" fill="black"/>
  <circle cx="308.7" cy="265.3" r="3.5" fill="black"/>
  <circle cx="356.3" cy="269.7" r="3.5" fill="black"/>
  <circle cx="343.3" cy="274.0" r="3.5" fill="black"/>
  <circle cx="256.7" cy="274.0" r="3.5" fill="black"/>
  <circle cx="278.3" cy="274.0" r="3.5" fill="black"/>
  <circle cx="321.7" cy="274.0" r="3.5" fill="black"/>
  <circle cx="443.0" cy="274.0" r="3.5" fill="black"/>
  <circle cx="222.0" cy="278.3" r="3.5" fill="black"/>
  <circle cx="295.7" cy="278.3" r="3.5" fill="black"/>
  <circle cx="308.7" cy="278.3" r="3.5" fill="black"/>
  <circle cx="399.7" cy="282.7" r="3.5" fill="black"/>
  <circle cx="365.0" cy="287.0" r="3.5" fill="black"/>
  <circle cx="265.3" cy="287.0" r="3.5" fill="black"/>
  <circle cx="334.7" cy="287.0" r="3.5" fill="black"/>
  <circle cx="352.0" cy="291.3" r="3.5" fill="black"/>
  <circle cx="278.3" cy="291.3" r="3.5" fill="black"/>
  <circle cx="321.7" cy="291.3" r="3.5" fill="black"/>
  <circle cx="105.0" cy="300.0" r="3.5" fill="black"/>
  <circle cx="170.0" cy="300.0" r="3.5" fill="black"/>
  <circle cx="282.7" cy="304.3" r="3.5" fill="black"/>
  <circle cx="317.3" cy="304.3" r="3.5" fill="black"/>
  <circle cx="265.3" cy="308.7" r="3.5" fill="black"/>
  <circle cx="330.3" cy="308.7" r="3.5" fill="black"/>
  <circle cx="352.0" cy="308.7" r="3.5" fill="black"/>
  <circle cx="365.0" cy="313.0" r="3.5" fill="black"/>
  <circle cx="295.7" cy="317.3" r="3.5" fill="black"/>
  <circle cx="399.7" cy="317.3" r="3.5" fill="black"/>
  <circle cx="304.3" cy="317.3" r="3.5" fill="black"/>
  <circle cx="226.3" cy="321.7" r="3.5" fill="black"/>
  <circle cx="274.0" cy="321.7" r="3.5" fill="black"/>
  <circle cx="321.7" cy="321.7" r="3.5" fill="black"/>
  <circle cx="256.7" cy="326.0" r="3.5" fill="black"/>
  <circle cx="343.3" cy="321.7" r="3.5" fill="black"/>
  <circle cx="438.7" cy="326.0" r="3.5" fill="black"/>
  <circle cx="239.3" cy="326.0" r="3.5" fill="black"/>
  <circle cx="174.3" cy="334.7" r="3.5" fill="black"/>
  <circle cx="291.3" cy="334.7" r="3.5" fill="black"/>
  <circle cx="308.7" cy="334.7" r="3.5" fill="black"/>
  <circle cx="261.0" cy="334.7" r="3.5" fill="black"/>
  <circle cx="356.3" cy="330.3" r="3.5" fill="black"/>
  <circle cx="334.7" cy="334.7" r="3.5" fill="black"/>
  <circle cx="278.3" cy="343.3" r="3.5" fill="black"/>
  <circle cx="326.0" cy="343.3" r="3.5" fill="black"/>
  <circle cx="291.3" cy="347.7" r="3.5" fill="black"/>
  <circle cx="308.7" cy="347.7" r="3.5" fill="black"/>
  <circle cx="269.7" cy="352.0" r="3.5" fill="black"/>
  <circle cx="330.3" cy="352.0" r="3.5" fill="black"/>
  <circle cx="291.3" cy="360.7" r="3.5" fill="black"/>
  <circle cx="308.7" cy="360.7" r="3.5" fill="black"/>
  <circle cx="226.3" cy="360.7" r="3.5" fill="black"/>
  <circle cx="209.0" cy="391.0" r="3.5" fill="black"/>
  <circle cx="391.0" cy="391.0" r="3.5" fill="black"/>
  <circle cx="282.7" cy="395.3" r="3.5" fill="black"/>
  <circle cx="317.3" cy="395.3" r="3.5" fill="black"/>
  <circle cx="278.3" cy="425.7" r="3.5" fill="black"/>
  <circle cx="321.7" cy="425.7" r="3.5" fill="black"/>
  <circle cx="165.7" cy="434.3" r="3.5" fill="black"/>
  <circle cx="269.7" cy="473.3" r="3.5" fill="black"/>
  <circle cx="330.3" cy="473.3" r="3.5" fill="black"/>
  <text x="300.0" y="30" font-family="Arial" font-size="16" font-weight="bold" text-anchor="middle">Humphrey Full Field 81-Point Screening</text>
  <text x="300.0" y="585" font-family="Arial" font-size="11" fill="#666" text-anchor="middle">OD · 81 pts (5° meridian grid, Fig 57)</text>
</svg>