<svg xmlns="http://www.w3.org/2000/svg" width="600" height="600" viewBox="0 0 600 600">
  <rect width="600" height="600" fill="white"/>
  <g stroke="#999" stroke-width="0.5" fill="none">
    <circle cx="300.0" cy="300.0" r="86.66666666666666"/>
    <circle cx="300.0" cy="300.0" r="173.33333333333331"/>
    <circle cx="300.0" cy="300.0" r="260.0"/>
    <line x1="300.0" y1="300.0" x2="560.0" y2="300.0"/>
    <line x1="300.0" y1="300.0" x2="551.1" y2="232.7"/>
    <line x1="300.0" y1="300.0" x2="525.2" y2="170.0"/>
    <line x1="300.0" y1="300.0" x2="483.8" y2="116.2"/>
    <line x1="300.0" y1="300.0" x2="430.0" y2="74.8"/>
    <line x1="300.0" y1="300.0" x2="367.3" y2="48.9"/>
    <line x1="300.0" y1="300.0" x2="300.0" y2="40.0"/>
    <line x1="300.0" y1="300.0" x2="232.7" y2="48.9"/>
    <line x1="300.0" y1="300.0" x2="170.0" y2="74.8"/>
    <line x1="300.0" y1="300.0" x2="116.2" y2="116.2"/>
    <line x1="300.0" y1="300.0" x2="74.8" y2="170.0"/>
    <line x1="300.0" y1="300.0" x2="48.9" y2="232.7"/>
    <line x1="300.0" y1="300.0" x2="40.0" y2="300.0"/>
    <line x1="300.0" y1="300.0" x2="48.9" y2="367.3"/>
    <line x1="300.0" y1="300.0" x2="74.8" y2="430.0"/>
    <line x1="300.0" y1="300.0" x2="116.2" y2="483.8"/>
    <line x1="300.0" y1="300.0" x2="170.0" y2="525.2"/>
    <line x1="300.0" y1="300.0" x2="232.7" y2="551.1"/>
    <line x1="300.0" y1="300.0" x2="300.0" y2="560.0"/>
    <line x1="300.0" y1="300.0" x2="367.3" y2="551.1"/>
    <line x1="300.0" y1="300.0" x2="430.0" y2="525.2"/>
    <line x1="300.0" y1="300.0" x2="483.8" y2="483.8"/>
    <line x1="300.0" y1="300.0" x2="525.2" y2="430.0"/>
    <line x1="300.0" y1="300.0" x2="551.1" y2="367.3"/>
  </g>
  <line x1="40.0" y1="300.0" x2="560.0" y2="300.0" stroke="black" stroke-width="1.2"/>
  <line x1="300.0" y1="40.0" x2="300.0" y2="560.0" stroke="black" stroke-width="1.2"/>
  <text x="303.0" y="396.66666666666663" font-family="Arial" font-size="10" fill="#666">10°</text>
  <text x="303.0" y="483.3333333333333" font-family="Arial" font-size="10" fill="#666">20°</text>
  <text x="303.0" y="570.0" font-family="Arial" font-size="10" fill="#666">30°</text>
  <circle cx="343.3" cy="300.0" r="4" fill="black"/>
  <circle cx="343.3" cy="291.3" r="4" fill="black"/>
  <circle cx="334.7" cy="282.7" r="4" fill="black"/>
  <circle cx="334.7" cy="265.3" r="4" fill="black"/>
  <circle cx="326.0" cy="265.3" r="4" fill="black"/>
  <circle cx="308.7" cy="256.7" r="4" fill="black"/>
  <circle cx="300.0" cy="256.7" r="4" fill="black"/>
  <circle cx="291.3" cy="256.7" r="4" fill="black"/>
  <circle cx="282.7" cy="265.3" r="4" fill="black"/>
  <circle cx="265.3" cy="265.3" r="4" fill="black"/>
  <circle cx="265.3" cy="282.7" r="4" fill="black"/>
  <circle cx="256.7" cy="291.3" r="4" fill="black"/>
  <circle cx="256.7" cy="300.0" r="4" fill="black"/>
  <circle cx="256.7" cy="308.7" r="4" fill="black"/>
  <circle cx="265.3" cy="326.0" r="4" fill="black"/>
  <circle cx="265.3" cy="334.7" r="4" fill="black"/>
  <circle cx="274.0" cy="334.7" r="4" fill="black"/>
  <circle cx="291.3" cy="343.3" r="4" fill="black"/>
  <circle cx="300.0" cy="343.3" r="4" fill="black"/>
  <circle cx="308.7" cy="343.3" r="4" fill="black"/>
  <circle cx="326.0" cy="334.7" r="4" fill="black"/>
  <circle cx="334.7" cy="334.7" r="4" fill="black"/>
  <circle cx="334.7" cy="326.0" r="4" fill="black"/>
  <circle cx="343.3" cy="308.7" r="4" fill="black"/>
  <circle cx="386.7" cy="300.0" r="4" fill="black"/>
  <circle cx="386.7" cy="274.0" r="4" fill="black"/>
  <circle cx="378.0" cy="256.7" r="4" fill="black"/>
  <circle cx="360.7" cy="239.3" r="4" fill="black"/>
  <circle cx="343.3" cy="222.0" r="4" fill="black"/>
  <circle cx="326.0" cy="213.3" r="4" fill="black"/>
  <circle cx="300.0" cy="213.3" r="4" fill="black"/>
  <circle cx="274.0" cy="213.3" r="4" fill="black"/>
  <circle cx="256.7" cy="222.0" r="4" fill="black"/>
  <circle cx="239.3" cy="239.3" r="4" fill="black"/>
  <circle cx="222.0" cy="256.7" r="4" fill="black"/>
  <circle cx="213.3" cy="274.0" r="4" fill="black"/>
  <circle cx="213.3" cy="300.0" r="4" fill="black"/>
  <circle cx="213.3" cy="326.0" r="4" fill="black"/>
  <circle cx="222.0" cy="343.3" r="4" fill="black"/>
  <circle cx="239.3" cy="360.7" r="4" fill="black"/>
  <circle cx="256.7" cy="378.0" r="4" fill="black"/>
  <circle cx="274.0" cy="386.7" r="4" fill="black"/>
  <circle cx="300.0" cy="386.7" r="4" fill="black"/>
  <circle cx="326.0" cy="386.7" r="4" fill="black"/>
  <circle cx="343.3" cy="378.0" r="4" fill="black"/>
  <circle cx="360.7" cy="360.7" r="4" fill="black"/>
  <circle cx="378.0" cy="343.3" r="4" fill="black"/>
  <circle cx="386.7" cy="326.0" r="4" fill="black"/>
  <circle cx="430.0" cy="300.0" r="4" fill="black"/>
  <circle cx="421.3" cy="265.3" r="4" fill="black"/>
  <circle cx="412.7" cy="239.3" r="4" fill="black"/>
  <circle cx="395.3" cy="204.7" r="4" fill="black"/>
  <circle cx="369.3" cy="187.3" r="4" fill="black"/>
  <circle cx="334.7" cy="178.7" r="4" fill="black"/>
  <circle cx="300.0" cy="170.0" r="4" fill="black"/>
  <circle cx="265.3" cy="178.7" r="4" fill="black"/>
  <circle cx="239.3" cy="187.3" r="4" fill="black"/>
  <circle cx="204.7" cy="204.7" r="4" fill="black"/>
  <circle cx="187.3" cy="239.3" r="4" fill="black"/>
  <circle cx="178.7" cy="265.3" r="4" fill="black"/>
  <circle cx="170.0" cy="300.0" r="4" fill="black"/>
  <circle cx="178.7" cy="334.7" r="4" fill="black"/>
  <circle cx="187.3" cy="369.3" r="4" fill="black"/>
  <circle cx="204.7" cy="395.3" r="4" fill="black"/>
  <circle cx="230.7" cy="412.7" r="4" fill="black"/>
  <circle cx="265.3" cy="421.3" r="4" fill="black"/>
  <circle cx="300.0" cy="430.0" r="4" fill="black"/>
  <circle cx="334.7" cy="421.3" r="4" fill="black"/>
  <circle cx="369.3" cy="412.7" r="4" fill="black"/>
  <circle cx="395.3" cy="395.3" r="4" fill="black"/>
  <circle cx="412.7" cy="369.3" r="4" fill="black"/>
  <circle cx="421.3" cy="334.7" r="4" fill="black"/>
  <circle cx="473.3" cy="300.0" r="4" fill="black"/>
  <circle cx="464.7" cy="256.7" r="4" fill="black"/>
  <circle cx="447.3" cy="213.3" r="4" fill="black"/>
  <circle cx="421.3" cy="178.7" r="4" fill="black"/>
  <circle cx="386.7" cy="152.7" r="4" fill="black"/>
  <circle cx="343.3" cy="135.3" r="4" fill="black"/>
  <circle cx="300.0" cy="126.7" r="4" fill="black"/>
  <circle cx="256.7" cy="135.3" r="4" fill="black"/>
  <circle cx="213.3" cy="152.7" r="4" fill="black"/>
  <circle cx="178.7" cy="178.7" r="4" fill="black"/>
  <circle cx="152.7" cy="213.3" r="4" fill="black"/>
  <circle cx="135.3" cy="256.7" r="4" fill="black"/>
  <circle cx="126.7" cy="300.0" r="4" fill="black"/>
  <circle cx="135.3" cy="343.3" r="4" fill="black"/>
  <circle cx="152.7" cy="386.7" r="4" fill="black"/>
  <circle cx="178.7" cy="421.3" r="4" fill="black"/>
  <circle cx="213.3" cy="447.3" r="4" fill="black"/>
  <circle cx="256.7" cy="464.7" r="4" fill="black"/>
  <circle cx="300.0" cy="473.3" r="4" fill="black"/>
  <circle cx="343.3" cy="464.7" r="4" fill="black"/>
  <circle cx="386.7" cy="447.3" r="4" fill="black"/>
  <circle cx="421.3" cy="421.3" r="4" fill="black"/>
  <circle cx="447.3" cy="386.7" r="4" fill="black"/>
  <circle cx="464.7" cy="343.3" r="4" fill="black"/>
  <circle cx="516.7" cy="300.0" r="4" fill="black"/>
  <circle cx="508.0" cy="248.0" r="4" fill="black"/>
  <circle cx="490.7" cy="196.0" r="4" fill="black"/>
  <circle cx="456.0" cy="144.0" r="4" fill="black"/>
  <circle cx="412.7" cy="109.3" r="4" fill="black"/>
  <circle cx="352.0" cy="92.0" r="4" fill="black"/>
  <circle cx="300.0" cy="83.3" r="4" fill="black"/>
  <circle cx="248.0" cy="92.0" r="4" fill="black"/>
  <circle cx="196.0" cy="109.3" r="4" fill="black"/>
  <circle cx="144.0" cy="144.0" r="4" fill="black"/>
  <circle cx="109.3" cy="196.0" r="4" fill="black"/>
  <circle cx="92.0" cy="248.0" r="4" fill="black"/>
  <circle cx="83.3" cy="300.0" r="4" fill="black"/>
  <circle cx="92.0" cy="352.0" r="4" fill="black"/>
  <circle cx="109.3" cy="412.7" r="4" fill="black"/>
  <circle cx="144.0" cy="456.0" r="4" fill="black"/>
  <circle cx="187.3" cy="490.7" r="4" fill="black"/>
  <circle cx="248.0" cy="508.0" r="4" fill="black"/>
  <circle cx="300.0" cy="516.7" r="4" fill="black"/>
  <circle cx="352.0" cy="508.0" r="4" fill="black"/>
  <circle cx="412.7" cy="490.7" r="4" fill="black"/>
  <circle cx="456.0" cy="456.0" r="4" fill="black"/>
  <circle cx="490.7" cy="412.7" r="4" fill="black"/>
  <circle cx="508.0" cy="352.0" r="4" fill="black"/>
  <text x="300.0" y="30" font-family="Arial" font-size="16" font-weight="bold" text-anchor="middle">Humphrey Full Field 120-Point Screening</text>
  <text x="300.0" y="585" font-family="Arial" font-size="11" fill="#666" text-anchor="middle">OD · 120 points (24 meridians × 5 rings, Fig 58)</text>
</svg>