<svg xmlns="http://www.w3.org/2000/svg" width="600" height="600" viewBox="0 0 600 600">
  <rect width="600" height="600" fill="white"/>
  <g stroke="#999" stroke-width="0.5" fill="none">
    <circle cx="300.0" cy="300.0" r="37.142857142857146"/>
    <circle cx="300.0" cy="300.0" r="74.28571428571429"/>
    <circle cx="300.0" cy="300.0" r="148.57142857142858"/>
    <circle cx="300.0" cy="300.0" r="222.85714285714286"/>
    <line x1="300.0" y1="300.0" x2="560.0" y2="300.0"/>
    <line x1="300.0" y1="300.0" x2="551.1" y2="232.7"/>
    <line x1="300.0" y1="300.0" x2="525.2" y2="170.0"/>
    <line x1="300.0" y1="300.0" x2="483.8" y2="116.2"/>
    <line x1="300.0" y1="300.0" x2="430.0" y2="74.8"/>
    <line x1="300.0" y1="300.0" x2="367.3" y2="48.9"/>
    <line x1="300.0" y1="300.0" x2="300.0" y2="40.0"/>
    <line x1="300.0" y1="300.0" x2="232.7" y2="48.9"/>
    <line x1="300.0" y1="300.0" x2="170.0" y2="74.8"/>
    <line x1="300.0" y1="300.0" x2="116.2" y2="116.2"/>
    <line x1="300.0" y1="300.0" x2="74.8" y2="170.0"/>
    <line x1="300.0" y1="300.0" x2="48.9" y2="232.7"/>
    <line x1="300.0" y1="300.0" x2="40.0" y2="300.0"/>
    <line x1="300.0" y1="300.0" x2="48.9" y2="367.3"/>
    <line x1="300.0" y1="300.0" x2="74.8" y2="430.0"/>
    <line x1="300.0" y1="300.0" x2="116.2" y2="483.8"/>
    <line x1="300.0" y1="300.0" x2="170.0" y2="525.2"/>
    <line x1="300.0" y1="300.0" x2="232.7" y2="551.1"/>
    <line x1="300.0" y1="300.0" x2="300.0" y2="560.0"/>
    <line x1="300.0" y1="300.0" x2="367.3" y2="551.1"/>
    <line x1="300.0" y1="300.0" x2="430.0" y2="525.2"/>
    <line x1="300.0" y1="300.0" x2="483.8" y2="483.8"/>
    <line x1="300.0" y1="300.0" x2="525.2" y2="430.0"/>
    <line x1="300.0" y1="300.0" x2="551.1" y2="367.3"/>
  </g>
  <line x1="40.0" y1="300.0" x2="560.0" y2="300.0" stroke="black" stroke-width="1.2"/>
  <line x1="300.0" y1="40.0" x2="300.0" y2="560.0" stroke="black" stroke-width="1.2"/>
  <text x="303.0" y="384.2857142857143" font-family="Arial" font-size="10" fill="#666">10°</text>
  <text x="303.0" y="458.57142857142856" font-family="Arial" font-size="10" fill="#666">20°</text>
  <text x="303.0" y="532.8571428571429" font-family="Arial" font-size="10" fill="#666">30°</text>
  <circle cx="307.4" cy="307.4" r="4" fill="black"/>
  <circle cx="307.4" cy="292.6" r="4" fill="black"/>
  <circle cx="285.1" cy="307.4" r="4" fill="black"/>
  <circle cx="285.1" cy="285.1" r="4" fill="black"/>
  <circle cx="307.4" cy="322.3" r="4" fill="black"/>
  <circle cx="322.3" cy="307.4" r="4" fill="black"/>
  <circle cx="322.3" cy="292.6" r="4" fill="black"/>
  <circle cx="285.1" cy="322.3" r="4" fill="black"/>
  <circle cx="314.9" cy="277.7" r="4" fill="black"/>
  <circle cx="322.3" cy="329.7" r="4" fill="black"/>
  <circle cx="307.4" cy="337.1" r="4" fill="black"/>
  <circle cx="337.1" cy="307.4" r="4" fill="black"/>
  <circle cx="337.1" cy="292.6" r="4" fill="black"/>
  <circle cx="307.4" cy="262.9" r="4" fill="black"/>
  <circle cx="292.6" cy="262.9" r="4" fill="black"/>
  <circle cx="285.1" cy="337.1" r="4" fill="black"/>
  <circle cx="262.9" cy="285.1" r="4" fill="black"/>
  <circle cx="270.3" cy="329.7" r="4" fill="black"/>
  <circle cx="329.7" cy="270.3" r="4" fill="black"/>
  <circle cx="270.3" cy="270.3" r="4" fill="black"/>
  <circle cx="255.4" cy="307.4" r="4" fill="black"/>
  <circle cx="262.9" cy="337.1" r="4" fill="black"/>
  <circle cx="337.1" cy="337.1" r="4" fill="black"/>
  <circle cx="352.0" cy="307.4" r="4" fill="black"/>
  <circle cx="352.0" cy="292.6" r="4" fill="black"/>
  <circle cx="344.6" cy="270.3" r="4" fill="black"/>
  <circle cx="337.1" cy="255.4" r="4" fill="black"/>
  <circle cx="248.0" cy="329.7" r="4" fill="black"/>
  <circle cx="270.3" cy="352.0" r="4" fill="black"/>
  <circle cx="292.6" cy="359.4" r="4" fill="black"/>
  <circle cx="307.4" cy="359.4" r="4" fill="black"/>
  <circle cx="329.7" cy="352.0" r="4" fill="black"/>
  <circle cx="352.0" cy="329.7" r="4" fill="black"/>
  <circle cx="329.7" cy="248.0" r="4" fill="black"/>
  <circle cx="307.4" cy="240.6" r="4" fill="black"/>
  <circle cx="292.6" cy="240.6" r="4" fill="black"/>
  <circle cx="270.3" cy="248.0" r="4" fill="black"/>
  <circle cx="248.0" cy="270.3" r="4" fill="black"/>
  <circle cx="255.4" cy="255.4" r="4" fill="black"/>
  <circle cx="225.7" cy="307.4" r="4" fill="black"/>
  <circle cx="225.7" cy="292.6" r="4" fill="black"/>
  <circle cx="285.1" cy="374.3" r="4" fill="black"/>
  <circle cx="314.9" cy="374.3" r="4" fill="black"/>
  <circle cx="374.3" cy="314.9" r="4" fill="black"/>
  <circle cx="374.3" cy="285.1" r="4" fill="black"/>
  <circle cx="314.9" cy="225.7" r="4" fill="black"/>
  <circle cx="285.1" cy="225.7" r="4" fill="black"/>
  <circle cx="233.1" cy="337.1" r="4" fill="black"/>
  <circle cx="262.9" cy="366.9" r="4" fill="black"/>
  <circle cx="337.1" cy="366.9" r="4" fill="black"/>
  <circle cx="366.9" cy="337.1" r="4" fill="black"/>
  <circle cx="366.9" cy="262.9" r="4" fill="black"/>
  <circle cx="337.1" cy="233.1" r="4" fill="black"/>
  <circle cx="262.9" cy="233.1" r="4" fill="black"/>
  <circle cx="233.1" cy="262.9" r="4" fill="black"/>
  <circle cx="210.9" cy="322.3" r="4" fill="black"/>
  <circle cx="381.7" cy="255.4" r="4" fill="black"/>
  <circle cx="389.1" cy="270.3" r="4" fill="black"/>
  <circle cx="210.9" cy="270.3" r="4" fill="black"/>
  <circle cx="396.6" cy="307.4" r="4" fill="black"/>
  <circle cx="396.6" cy="292.6" r="4" fill="black"/>
  <circle cx="389.1" cy="352.0" r="4" fill="black"/>
  <circle cx="404.0" cy="262.9" r="4" fill="black"/>
  <circle cx="225.7" cy="218.3" r="4" fill="black"/>
  <circle cx="344.6" cy="404.0" r="4" fill="black"/>
  <circle cx="344.6" cy="196.0" r="4" fill="black"/>
  <circle cx="255.4" cy="196.0" r="4" fill="black"/>
  <circle cx="322.3" cy="411.4" r="4" fill="black"/>
  <circle cx="411.4" cy="322.3" r="4" fill="black"/>
  <circle cx="411.4" cy="277.7" r="4" fill="black"/>
  <circle cx="322.3" cy="188.6" r="4" fill="black"/>
  <circle cx="277.7" cy="188.6" r="4" fill="black"/>
  <circle cx="218.3" cy="381.7" r="4" fill="black"/>
  <circle cx="381.7" cy="381.7" r="4" fill="black"/>
  <circle cx="381.7" cy="218.3" r="4" fill="black"/>
  <circle cx="248.0" cy="404.0" r="4" fill="black"/>
  <circle cx="411.4" cy="337.1" r="4" fill="black"/>
  <circle cx="277.7" cy="418.9" r="4" fill="black"/>
  <circle cx="426.3" cy="270.3" r="4" fill="black"/>
  <circle cx="411.4" cy="233.1" r="4" fill="black"/>
  <circle cx="426.3" cy="337.1" r="4" fill="black"/>
  <circle cx="433.7" cy="314.9" r="4" fill="black"/>
  <circle cx="433.7" cy="285.1" r="4" fill="black"/>
  <circle cx="418.9" cy="366.9" r="4" fill="black"/>
  <circle cx="158.9" cy="337.1" r="4" fill="black"/>
  <circle cx="359.4" cy="433.7" r="4" fill="black"/>
  <circle cx="359.4" cy="166.3" r="4" fill="black"/>
  <circle cx="196.0" cy="404.0" r="4" fill="black"/>
  <circle cx="404.0" cy="404.0" r="4" fill="black"/>
  <circle cx="404.0" cy="196.0" r="4" fill="black"/>
  <circle cx="158.9" cy="255.4" r="4" fill="black"/>
  <circle cx="233.1" cy="433.7" r="4" fill="black"/>
  <circle cx="277.7" cy="448.6" r="4" fill="black"/>
  <circle cx="322.3" cy="448.6" r="4" fill="black"/>
  <circle cx="448.6" cy="277.7" r="4" fill="black"/>
  <circle cx="322.3" cy="151.4" r="4" fill="black"/>
  <circle cx="277.7" cy="151.4" r="4" fill="black"/>
  <circle cx="441.1" cy="352.0" r="4" fill="black"/>
  <circle cx="441.1" cy="248.0" r="4" fill="black"/>
  <circle cx="448.6" cy="329.7" r="4" fill="black"/>
  <circle cx="196.0" cy="188.6" r="4" fill="black"/>
  <circle cx="240.6" cy="158.9" r="4" fill="black"/>
  <circle cx="441.1" cy="381.7" r="4" fill="black"/>
  <circle cx="463.4" cy="314.9" r="4" fill="black"/>
  <circle cx="463.4" cy="285.1" r="4" fill="black"/>
  <circle cx="463.4" cy="344.6" r="4" fill="black"/>
  <circle cx="463.4" cy="255.4" r="4" fill="black"/>
  <circle cx="129.1" cy="292.6" r="4" fill="black"/>
  <circle cx="448.6" cy="210.9" r="4" fill="black"/>
  <circle cx="478.3" cy="337.1" r="4" fill="black"/>
  <circle cx="470.9" cy="366.9" r="4" fill="black"/>
  <circle cx="404.0" cy="456.0" r="4" fill="black"/>
  <circle cx="485.7" cy="270.3" r="4" fill="black"/>
  <circle cx="478.3" cy="233.1" r="4" fill="black"/>
  <circle cx="262.9" cy="500.6" r="4" fill="black"/>
  <circle cx="337.1" cy="500.6" r="4" fill="black"/>
  <circle cx="144.0" cy="456.0" r="4" fill="black"/>
  <circle cx="77.1" cy="307.4" r="4" fill="black"/>
  <circle cx="77.1" cy="292.6" r="4" fill="black"/>
  <circle cx="84.6" cy="359.4" r="4" fill="black"/>
  <circle cx="84.6" cy="240.6" r="4" fill="black"/>
  <circle cx="47.4" cy="285.1" r="4" fill="black"/>
  <circle cx="530.3" cy="493.1" r="4" fill="black"/>
  <circle cx="530.3" cy="106.9" r="4" fill="black"/>
  <text x="300.0" y="30" font-family="Arial" font-size="16" font-weight="bold" text-anchor="middle">Humphrey Full Field 120-Point Screening</text>
  <text x="300.0" y="585" font-family="Arial" font-size="11" fill="#666" text-anchor="middle">OD · 124 points (Fig 58)</text>
</svg>