<svg xmlns="http://www.w3.org/2000/svg" width="400" height="400" viewBox="0 0 400 400">
<rect width="400" height="400" fill="#fafafa"/>
<circle cx="200" cy="200" r="180" fill="none" stroke="#bbb" stroke-width="1" stroke-dasharray="3,3"/>
<line x1="20" y1="200" x2="380" y2="200" stroke="#888" stroke-width="1"/>
<line x1="200" y1="20" x2="200" y2="380" stroke="#888" stroke-width="1"/>
<text x="293" y="196" font-family="Arial" font-size="11" fill="#666">5</text>
<text x="383" y="196" font-family="Arial" font-size="11" fill="#666">10</text>
<circle cx="146" cy="254" r="3" fill="#1a56a8"/>
<circle cx="146" cy="218" r="3" fill="#1a56a8"/>
<circle cx="146" cy="182" r="3" fill="#1a56a8"/>
<circle cx="146" cy="146" r="3" fill="#1a56a8"/>
<circle cx="182" cy="254" r="3" fill="#1a56a8"/>
<circle cx="182" cy="218" r="3" fill="#1a56a8"/>
<circle cx="182" cy="182" r="3" fill="#1a56a8"/>
<circle cx="182" cy="146" r="3" fill="#1a56a8"/>
<circle cx="218" cy="254" r="3" fill="#1a56a8"/>
<circle cx="218" cy="218" r="3" fill="#1a56a8"/>
<circle cx="218" cy="182" r="3" fill="#1a56a8"/>
<circle cx="218" cy="146" r="3" fill="#1a56a8"/>
<circle cx="254" cy="254" r="3" fill="#1a56a8"/>
<circle cx="254" cy="218" r="3" fill="#1a56a8"/>
<circle cx="254" cy="182" r="3" fill="#1a56a8"/>
<circle cx="254" cy="146" r="3" fill="#1a56a8"/>
<text x="200" y="390" font-family="Arial" font-size="12" fill="#333" text-anchor="middle">HFA Macula Threshold (16 pts) — OD</text>
</svg>