<svg xmlns="http://www.w3.org/2000/svg" width="600" height="600" viewBox="0 0 600 600">
  <rect width="600" height="600" fill="white"/>
  <g stroke="#999" stroke-width="0.5" fill="none">
    <circle cx="300.0" cy="300.0" r="45.0"/>
    <circle cx="300.0" cy="300.0" r="90.0"/>
    <circle cx="300.0" cy="300.0" r="135.0"/>
    <circle cx="300.0" cy="300.0" r="180.0"/>
    <circle cx="300.0" cy="300.0" r="225.0"/>
    <circle cx="300.0" cy="300.0" r="270.0"/>
    <line x1="300.0" y1="300.0" x2="570.0" y2="300.0"/>
    <line x1="300.0" y1="300.0" x2="533.8" y2="165.0"/>
    <line x1="300.0" y1="300.0" x2="435.0" y2="66.2"/>
    <line x1="300.0" y1="300.0" x2="300.0" y2="30.0"/>
    <line x1="300.0" y1="300.0" x2="165.0" y2="66.2"/>
    <line x1="300.0" y1="300.0" x2="66.2" y2="165.0"/>
    <line x1="300.0" y1="300.0" x2="30.0" y2="300.0"/>
    <line x1="300.0" y1="300.0" x2="66.2" y2="435.0"/>
    <line x1="300.0" y1="300.0" x2="165.0" y2="533.8"/>
    <line x1="300.0" y1="300.0" x2="300.0" y2="570.0"/>
    <line x1="300.0" y1="300.0" x2="435.0" y2="533.8"/>
    <line x1="300.0" y1="300.0" x2="533.8" y2="435.0"/>
  </g>
  <line x1="30.0" y1="300.0" x2="570.0" y2="300.0" stroke="black" stroke-width="1.2"/>
  <line x1="300.0" y1="30.0" x2="300.0" y2="570.0" stroke="black" stroke-width="1.2"/>
  <text x="300.0" y="402.0" font-family="Arial" font-size="10" fill="#666" text-anchor="middle">20°</text>
  <text x="300.0" y="492.0" font-family="Arial" font-size="10" fill="#666" text-anchor="middle">40°</text>
  <text x="300.0" y="582.0" font-family="Arial" font-size="10" fill="#666" text-anchor="middle">60°</text>
  <circle cx="403.5" cy="196.5" r="4" fill="black"/>
  <circle cx="75.0" cy="255.0" r="4" fill="black"/>
  <circle cx="120.0" cy="264.0" r="4" fill="black"/>
  <circle cx="165.0" cy="273.0" r="4" fill="black"/>
  <circle cx="75.0" cy="282.0" r="4" fill="black"/>
  <circle cx="120.0" cy="282.0" r="4" fill="black"/>
  <circle cx="165.0" cy="286.5" r="4" fill="black"/>
  <circle cx="165.0" cy="313.5" r="4" fill="black"/>
  <circle cx="120.0" cy="318.0" r="4" fill="black"/>
  <circle cx="75.0" cy="318.0" r="4" fill="black"/>
  <circle cx="165.0" cy="327.0" r="4" fill="black"/>
  <circle cx="120.0" cy="336.0" r="4" fill="black"/>
  <circle cx="75.0" cy="345.0" r="4" fill="black"/>
  <circle cx="403.5" cy="403.5" r="4" fill="black"/>
  <text x="300.0" y="30" font-family="Arial" font-size="16" font-weight="bold" text-anchor="middle">Humphrey Nasal Step Threshold</text>
  <text x="300.0" y="585" font-family="Arial" font-size="11" fill="#666" text-anchor="middle">OD (right eye) · 14 points</text>
</svg>