<svg xmlns="http://www.w3.org/2000/svg" width="600" height="600" viewBox="0 0 600 600">
  <rect width="600" height="600" fill="white"/>
  <g stroke="#999" stroke-width="0.5" fill="none">
    <circle cx="300.0" cy="300.0" r="50.0"/>
    <circle cx="300.0" cy="300.0" r="100.0"/>
    <circle cx="300.0" cy="300.0" r="150.0"/>
    <circle cx="300.0" cy="300.0" r="200.0"/>
    <circle cx="300.0" cy="300.0" r="250.0"/>
    <line x1="300.0" y1="300.0" x2="550.0" y2="300.0"/>
    <line x1="300.0" y1="300.0" x2="516.5" y2="175.0"/>
    <line x1="300.0" y1="300.0" x2="425.0" y2="83.5"/>
    <line x1="300.0" y1="300.0" x2="300.0" y2="50.0"/>
    <line x1="300.0" y1="300.0" x2="175.0" y2="83.5"/>
    <line x1="300.0" y1="300.0" x2="83.5" y2="175.0"/>
    <line x1="300.0" y1="300.0" x2="50.0" y2="300.0"/>
    <line x1="300.0" y1="300.0" x2="83.5" y2="425.0"/>
    <line x1="300.0" y1="300.0" x2="175.0" y2="516.5"/>
    <line x1="300.0" y1="300.0" x2="300.0" y2="550.0"/>
    <line x1="300.0" y1="300.0" x2="425.0" y2="516.5"/>
    <line x1="300.0" y1="300.0" x2="516.5" y2="425.0"/>
  </g>
  <line x1="50.0" y1="300.0" x2="550.0" y2="300.0" stroke="black" stroke-width="1.2"/>
  <line x1="300.0" y1="50.0" x2="300.0" y2="550.0" stroke="black" stroke-width="1.2"/>
  <text x="305.0" y="362.0" font-family="Arial" font-size="10" fill="#666">10°</text>
  <text x="305.0" y="412.0" font-family="Arial" font-size="10" fill="#666">20°</text>
  <text x="305.0" y="462.0" font-family="Arial" font-size="10" fill="#666">30°</text>
  <text x="305.0" y="512.0" font-family="Arial" font-size="10" fill="#666">40°</text>
  <circle cx="290.0" cy="250.0" r="3" fill="black"/>
  <circle cx="290.0" cy="250.0" r="7" stroke="black" stroke-width="1.2" fill="none" opacity="0.85"/>
  <circle cx="310.0" cy="250.0" r="3" fill="black"/>
  <circle cx="310.0" cy="250.0" r="7" stroke="black" stroke-width="1.2" fill="none" opacity="0.85"/>
  <circle cx="290.0" cy="350.0" r="3" fill="black"/>
  <circle cx="290.0" cy="350.0" r="7" stroke="black" stroke-width="1.2" fill="none" opacity="0.85"/>
  <circle cx="310.0" cy="350.0" r="3" fill="black"/>
  <circle cx="310.0" cy="350.0" r="7" stroke="black" stroke-width="1.2" fill="none" opacity="0.85"/>
  <circle cx="280.0" cy="200.0" r="3" fill="black"/>
  <circle cx="280.0" cy="200.0" r="7" stroke="black" stroke-width="1.2" fill="none" opacity="0.85"/>
  <circle cx="320.0" cy="200.0" r="3" fill="black"/>
  <circle cx="320.0" cy="200.0" r="7" stroke="black" stroke-width="1.2" fill="none" opacity="0.85"/>
  <circle cx="280.0" cy="400.0" r="3" fill="black"/>
  <circle cx="280.0" cy="400.0" r="7" stroke="black" stroke-width="1.2" fill="none" opacity="0.85"/>
  <circle cx="320.0" cy="400.0" r="3" fill="black"/>
  <circle cx="320.0" cy="400.0" r="7" stroke="black" stroke-width="1.2" fill="none" opacity="0.85"/>
  <circle cx="275.0" cy="150.0" r="3" fill="black"/>
  <circle cx="275.0" cy="150.0" r="7" stroke="black" stroke-width="1.2" fill="none" opacity="0.85"/>
  <circle cx="325.0" cy="150.0" r="3" fill="black"/>
  <circle cx="325.0" cy="150.0" r="7" stroke="black" stroke-width="1.2" fill="none" opacity="0.85"/>
  <circle cx="275.0" cy="450.0" r="3" fill="black"/>
  <circle cx="275.0" cy="450.0" r="7" stroke="black" stroke-width="1.2" fill="none" opacity="0.85"/>
  <circle cx="325.0" cy="450.0" r="3" fill="black"/>
  <circle cx="325.0" cy="450.0" r="7" stroke="black" stroke-width="1.2" fill="none" opacity="0.85"/>
  <circle cx="265.0" cy="100.0" r="3" fill="black"/>
  <circle cx="265.0" cy="100.0" r="7" stroke="black" stroke-width="1.2" fill="none" opacity="0.85"/>
  <circle cx="335.0" cy="100.0" r="3" fill="black"/>
  <circle cx="335.0" cy="100.0" r="7" stroke="black" stroke-width="1.2" fill="none" opacity="0.85"/>
  <circle cx="265.0" cy="500.0" r="3" fill="black"/>
  <circle cx="265.0" cy="500.0" r="7" stroke="black" stroke-width="1.2" fill="none" opacity="0.85"/>
  <circle cx="335.0" cy="500.0" r="3" fill="black"/>
  <circle cx="335.0" cy="500.0" r="7" stroke="black" stroke-width="1.2" fill="none" opacity="0.85"/>
  <text x="300.0" y="30" font-family="Arial" font-size="16" font-weight="bold" text-anchor="middle">Humphrey Neurological 20 (Threshold)</text>
  <text x="300.0" y="585" font-family="Arial" font-size="11" fill="#666" text-anchor="middle">OD (right eye) · 16 points (each tested 2×)</text>
</svg>