<svg xmlns="http://www.w3.org/2000/svg" width="600" height="600" viewBox="0 0 600 600">
  <rect width="600" height="600" fill="white"/>
  <g stroke="#999" stroke-width="0.5" fill="none">
    <circle cx="300.0" cy="300.0" r="40.0"/>
    <circle cx="300.0" cy="300.0" r="80.0"/>
    <circle cx="300.0" cy="300.0" r="120.0"/>
    <circle cx="300.0" cy="300.0" r="160.0"/>
    <circle cx="300.0" cy="300.0" r="200.0"/>
    <circle cx="300.0" cy="300.0" r="240.0"/>
    <line x1="300.0" y1="300.0" x2="540.0" y2="300.0"/>
    <line x1="300.0" y1="300.0" x2="507.8" y2="180.0"/>
    <line x1="300.0" y1="300.0" x2="420.0" y2="92.2"/>
    <line x1="300.0" y1="300.0" x2="300.0" y2="60.0"/>
    <line x1="300.0" y1="300.0" x2="180.0" y2="92.2"/>
    <line x1="300.0" y1="300.0" x2="92.2" y2="180.0"/>
    <line x1="300.0" y1="300.0" x2="60.0" y2="300.0"/>
    <line x1="300.0" y1="300.0" x2="92.2" y2="420.0"/>
    <line x1="300.0" y1="300.0" x2="180.0" y2="507.8"/>
    <line x1="300.0" y1="300.0" x2="300.0" y2="540.0"/>
    <line x1="300.0" y1="300.0" x2="420.0" y2="507.8"/>
    <line x1="300.0" y1="300.0" x2="507.8" y2="420.0"/>
  </g>
  <line x1="60.0" y1="300.0" x2="540.0" y2="300.0" stroke="black" stroke-width="1.2"/>
  <line x1="300.0" y1="60.0" x2="300.0" y2="540.0" stroke="black" stroke-width="1.2"/>
  <text x="300.0" y="392.0" font-family="Arial" font-size="10" fill="#666" text-anchor="middle">20°</text>
  <text x="300.0" y="472.0" font-family="Arial" font-size="10" fill="#666" text-anchor="middle">40°</text>
  <text x="300.0" y="552.0" font-family="Arial" font-size="10" fill="#666" text-anchor="middle">60°</text>
  <circle cx="380.0" cy="112.0" r="4" fill="black"/>
  <circle cx="400.0" cy="132.0" r="4" fill="black"/>
  <circle cx="416.0" cy="112.0" r="4" fill="black"/>
  <circle cx="432.0" cy="132.0" r="4" fill="black"/>
  <circle cx="452.0" cy="148.0" r="4" fill="black"/>
  <circle cx="468.0" cy="164.0" r="4" fill="black"/>
  <circle cx="488.0" cy="180.0" r="4" fill="black"/>
  <circle cx="504.0" cy="196.0" r="4" fill="black"/>
  <circle cx="488.0" cy="216.0" r="4" fill="black"/>
  <circle cx="504.0" cy="232.0" r="4" fill="black"/>
  <circle cx="524.0" cy="248.0" r="4" fill="black"/>
  <circle cx="508.0" cy="268.0" r="4" fill="black"/>
  <circle cx="512.0" cy="300.0" r="4" fill="black"/>
  <circle cx="524.0" cy="320.0" r="4" fill="black"/>
  <circle cx="508.0" cy="336.0" r="4" fill="black"/>
  <circle cx="524.0" cy="352.0" r="4" fill="black"/>
  <circle cx="492.0" cy="352.0" r="4" fill="black"/>
  <circle cx="508.0" cy="372.0" r="4" fill="black"/>
  <circle cx="476.0" cy="372.0" r="4" fill="black"/>
  <circle cx="492.0" cy="388.0" r="4" fill="black"/>
  <circle cx="476.0" cy="408.0" r="4" fill="black"/>
  <circle cx="492.0" cy="424.0" r="4" fill="black"/>
  <circle cx="460.0" cy="428.0" r="4" fill="black"/>
  <text x="300.0" y="30" font-family="Arial" font-size="16" font-weight="bold" text-anchor="middle">Humphrey Temporal Crescent Threshold</text>
  <text x="300.0" y="585" font-family="Arial" font-size="11" fill="#666" text-anchor="middle">OD (right eye) · 23 points</text>
</svg>